<svg width="11" height="60" viewBox="0 0 11 60" fill="none" xmlns="http://www.w3.org/2000/svg">
<g clip-path="url(#clip0_191_5284)">
<path d="M6.28052 49.2C6.558 32.7976 6.70911 16.3975 6.73389 0L5.77507 -4.1911e-08C5.73048 16.1569 5.57936 32.3163 5.3217 48.478C5.31427 49.0628 6.25822 50.3839 6.28052 49.2Z" fill="black"/>
<path d="M9.92985 47.7995C8.80771 49.4609 8.04879 51.3282 7.70012 53.2861C7.49944 54.3257 7.24671 55.3509 7.0163 56.3833C6.90482 56.9103 6.81567 58.3685 6.0427 58.679C6.24338 58.679 6.44401 58.7296 6.65212 58.7585C6.2805 58.4625 6.07982 57.625 5.90888 57.2568C5.53981 56.5405 5.10709 55.8568 4.61564 55.2136C3.50135 53.8145 2.5305 52.313 1.71698 50.7305C1.58392 50.5008 1.47443 50.259 1.38999 50.0085C1.31567 49.5898 1.21161 49.8353 1.66499 49.662C2.54527 49.4652 3.44483 49.3611 4.34809 49.3516C6.28795 49.1495 8.21291 48.803 10.1602 48.702L9.63997 47.3374C7.41024 48.1821 4.4373 47.5179 2.14068 48.2254C1.44203 48.4347 1.84337 49.4961 2.50486 49.5971C4.47445 49.8787 6.43656 49.5394 8.39873 49.7632L7.78931 48.5358C7.35079 48.9978 6.21358 49.0918 5.5075 49.2C4.52821 49.3949 3.53363 49.5084 2.53453 49.5393L2.74266 50.9109C4.5636 50.9109 6.40685 50.4129 8.22779 50.6439L7.61837 49.4167C7.11297 49.922 5.23251 49.9003 4.4967 49.9437C3.9244 49.9437 3.33726 49.9941 2.75753 49.9868C2.51003 50.0019 2.2618 50.0019 2.01429 49.9868C1.73929 50.2612 1.79876 50.3911 2.20754 50.3695C2.62049 50.6852 2.99458 51.0462 3.32241 51.4452C3.74456 52.1959 4.21629 52.9194 4.73459 53.611C4.91297 53.7987 5.38114 54.0154 5.58924 53.7121C6.25816 52.7303 6.33249 51.2719 7.63316 50.5211L6.65956 49.4743C6.2965 50.9114 6.17603 52.3963 6.30282 53.8709C6.30282 54.3041 6.34741 54.7373 6.30282 55.1705C6.30282 55.4087 6.24332 55.6614 6.25818 55.8924C6.27305 56.1234 6.0129 56.1811 6.33993 56.1739L6.9048 56.5782C6.40683 55.7552 6.62238 54.6433 6.63724 53.7698C6.65211 52.8962 6.63724 52.03 6.63724 51.1637C6.63724 50.8894 6.51833 50.3768 6.08725 50.2613C5.65617 50.1458 5.42575 50.3552 5.41831 50.6511C5.41831 52.521 5.95347 54.398 5.71563 56.2678C5.71563 56.4266 5.96095 56.7153 5.67108 56.3182C5.55216 56.145 5.41094 55.9789 5.29202 55.8057C4.98026 55.3093 4.73074 54.7786 4.54878 54.2247C4.18459 53.279 4.05076 52.2466 3.38927 51.3803L2.57916 52.1022C3.90957 53.5461 4.24398 55.2426 5.31425 56.7442L5.83457 55.8129C5.3589 55.553 5.31425 54.8743 5.22506 54.4845C5.08676 54.1442 5.08665 53.7658 5.22461 53.4254C5.36257 53.085 5.62832 52.8083 5.96831 52.6509C6.41425 52.4055 6.94199 52.2465 7.39537 52.0083C7.76325 51.7239 8.17786 51.5019 8.62173 51.3514L7.81162 50.7738C7.94541 51.0842 7.32107 51.7195 7.14269 52.0228C6.93093 52.3709 6.78252 52.7519 6.70411 53.149C6.65208 53.4811 7.25411 54.4845 7.81897 53.943C8.47925 53.2245 9.04133 52.4263 9.49127 51.568L8.4136 50.6222C8.12556 51.2739 7.78769 51.9037 7.4028 52.5064C7.21699 52.8601 7.16497 53.3511 6.65956 53.5893C6.86024 53.5893 7.06087 53.6327 7.26898 53.6616C6.76192 53.1511 6.36073 52.5506 6.08725 51.8929C5.83853 51.3586 5.4734 50.8833 5.01702 50.4996C4.27378 49.9509 4.11025 51.0121 4.34809 51.3369C4.82376 51.9867 5.09131 52.6942 5.63388 53.3223C6.17645 53.9504 6.67439 53.2212 6.53318 52.7808C6.44441 52.5158 6.27865 52.2814 6.05577 52.1059C5.83288 51.9304 5.56245 51.8212 5.27714 51.7917C4.5339 51.6401 4.75689 53.0263 5.48527 53.1707L5.42575 52.9902L6.37713 52.4054C5.97577 51.9073 5.71561 51.2575 5.32913 50.7305L4.66019 51.568C5.1242 52.0886 5.50733 52.6723 5.79737 53.3006C6.05833 53.8519 6.43561 54.3438 6.9048 54.7445C6.98649 54.8128 7.08691 54.8567 7.19377 54.8708C7.30062 54.8849 7.40937 54.8687 7.50687 54.8239C8.10146 54.528 8.2055 54.0441 8.42104 53.5893C8.84656 52.8877 9.23363 52.1648 9.58055 51.4235C9.69203 51.0842 8.91157 49.8281 8.50279 50.4779C8.04933 51.3359 7.48484 52.1341 6.82305 52.8531L7.93792 53.6471C8.1163 52.5064 9.42438 51.7556 8.93384 50.55C8.83722 50.319 8.56224 49.9004 8.11629 49.9653C7.32845 50.0953 6.62984 50.7378 5.92376 51.041C4.88322 51.4886 4.12508 51.9579 3.93927 52.8531C3.67913 54.1526 4.192 56.2389 5.73795 57.0907C6.4366 57.4734 6.41426 56.3688 6.25818 56.1594C5.10615 54.5495 4.71967 52.7376 3.28521 51.2215C2.62372 50.4996 2.11091 51.4597 2.4751 51.9434C2.96564 52.586 4.37038 58.5924 6.38456 57.7982C7.12781 57.5022 6.99398 56.4554 6.99398 55.9428C6.99398 54.3473 6.65214 52.7592 6.667 51.1637C6.26565 50.9904 5.85686 50.8244 5.44807 50.6511C5.44807 51.8568 5.44807 53.0696 5.44807 54.2608C5.36923 55.2558 5.5669 56.2531 6.02038 57.1486C6.10214 57.2785 6.33256 57.5599 6.59269 57.5527C7.82648 57.5527 7.57373 55.7553 7.5663 55.1921C7.5663 53.5678 7.32843 51.9362 7.81897 50.2902C7.90073 50.0158 7.53659 48.8462 6.84537 49.2505C6.26727 49.6383 5.80967 50.1727 5.52238 50.7955C5.31427 51.1348 5.06157 51.4741 4.87576 51.8206C4.68995 52.1671 4.7494 52.3982 4.58588 52.6292C4.86832 52.6292 5.1582 52.7014 5.44063 52.7302C4.46698 51.6762 4.21432 50.3263 2.88392 49.4167C2.05892 48.8463 0.654113 48.7668 0.483167 49.7991C0.297356 51.0409 1.89535 51.4164 3.29265 51.402C4.82373 51.402 7.61092 51.539 8.62173 50.5355C8.94876 50.2107 8.62168 49.3877 8.01222 49.3083C6.16898 49.0773 4.35546 49.561 2.52709 49.5827C1.64263 49.5827 2.00684 50.9326 2.73522 50.9543C3.93906 50.936 5.13852 50.8079 6.3177 50.5717C7.24675 50.4273 8.26499 50.2468 8.81499 49.6548C9.12715 49.3299 8.81494 48.4997 8.21291 48.4275C6.25075 48.2109 4.28864 48.5503 2.31905 48.2615L2.68323 49.6331C5.00215 48.9112 7.88591 49.5898 10.1825 48.7451C10.9258 48.4852 10.4799 47.3013 9.66229 47.3808C7.22446 47.5035 4.74945 47.9149 2.31905 48.1965C1.69472 48.2687 0.616976 48.2471 0.23049 48.6731C-0.155996 49.099 0.133901 49.8858 0.356873 50.3623C1.18352 52.1125 2.17896 53.783 3.32985 55.3509C3.98469 56.2396 4.58051 57.1679 5.11365 58.1303C5.349 58.7925 5.73509 59.3948 6.2433 59.8919C6.32586 59.9587 6.42617 60.0015 6.53263 60.0155C6.6391 60.0295 6.74747 60.0142 6.84537 59.9713C7.58862 59.6753 7.68523 58.9679 7.86361 58.4481C8.16546 57.4433 8.41354 56.4238 8.60686 55.3941C9.10483 53.1489 9.45411 50.9759 10.8886 48.8967C11.2007 48.4419 10.3014 47.2074 9.88521 47.8138L9.92985 47.7995Z" fill="black"/>
</g>
<defs>
<clipPath id="clip0_191_5284">
<rect width="60" height="11" fill="white" transform="translate(11) rotate(90)"/>
</clipPath>
</defs>
</svg>
