<svg width="60" height="11" viewBox="0 0 60 11" fill="none" xmlns="http://www.w3.org/2000/svg">
<g clip-path="url(#clip0_112_5064)">
<path d="M49.2 4.71948C32.7976 4.442 16.3975 4.29089 0 4.26611V5.22493C16.1569 5.26952 32.3163 5.42064 48.478 5.67829C49.0628 5.68573 50.3839 4.74178 49.2 4.71948Z" fill="black"/>
<path d="M47.7993 1.07015C49.4606 2.19229 51.328 2.95121 53.2859 3.29988C54.3255 3.50056 55.3507 3.75329 56.383 3.9837C56.91 4.09518 58.3683 4.18432 58.6787 4.9573C58.6787 4.75662 58.7293 4.55599 58.7582 4.34788C58.4622 4.7195 57.6247 4.92018 57.2565 5.09112C56.5403 5.46019 55.8566 5.89291 55.2134 6.38436C53.8143 7.49865 52.3128 8.4695 50.7302 9.28302C50.5005 9.41608 50.2587 9.52557 50.0083 9.61001C49.5896 9.68433 49.835 9.78839 49.6618 9.33501C49.4649 8.45473 49.3609 7.55517 49.3514 6.65191C49.1492 4.71205 48.8028 2.78709 48.7017 0.839792L47.3372 1.36003C48.1818 3.58976 47.5176 6.5627 48.2251 8.85932C48.4345 9.55797 49.4958 9.15663 49.5969 8.49514C49.8785 6.52555 49.5391 4.56344 49.7629 2.60127L48.5355 3.21069C48.9975 3.64921 49.0915 4.78642 49.1998 5.4925C49.3946 6.47179 49.5081 7.46637 49.5391 8.46547L50.9107 8.25734C50.9107 6.4364 50.4127 4.59315 50.6437 2.77221L49.4164 3.38163C49.9218 3.88703 49.9001 5.76749 49.9434 6.5033C49.9434 7.0756 49.9938 7.66274 49.9866 8.24247C50.0017 8.48997 50.0017 8.7382 49.9866 8.98571C50.2609 9.26071 50.3909 9.20124 50.3692 8.79246C50.685 8.37951 51.0459 8.00542 51.4449 7.67759C52.1957 7.25544 52.9191 6.78371 53.6107 6.26541C53.7984 6.08703 54.0151 5.61886 53.7119 5.41076C52.7301 4.74184 51.2716 4.66751 50.5208 3.36684L49.4741 4.34044C50.9112 4.7035 52.3961 4.82397 53.8707 4.69718C54.3039 4.69718 54.7371 4.65259 55.1702 4.69718C55.4085 4.69718 55.6611 4.75668 55.8922 4.74182C56.1232 4.72695 56.1808 4.9871 56.1736 4.66007L56.578 4.0952C55.755 4.59317 54.6431 4.37762 53.7695 4.36276C52.896 4.34789 52.0298 4.36276 51.1634 4.36276C50.8891 4.36276 50.3765 4.48167 50.261 4.91275C50.1455 5.34383 50.3549 5.57425 50.6509 5.58169C52.5207 5.58169 54.3978 5.04653 56.2676 5.28437C56.4264 5.28437 56.715 5.03905 56.318 5.32892C56.1447 5.44784 55.9787 5.58906 55.8054 5.70798C55.3091 6.01974 54.7784 6.26926 54.2244 6.45122C53.2787 6.81541 52.2464 6.94924 51.3801 7.61073L52.102 8.42084C53.5459 7.09043 55.2424 6.75602 56.744 5.68575L55.8127 5.16543C55.5528 5.6411 54.8741 5.68575 54.4842 5.77494C54.144 5.91324 53.7655 5.91335 53.4251 5.77539C53.0848 5.63743 52.808 5.37168 52.6507 5.03169C52.4052 4.58575 52.2463 4.05801 52.0081 3.60463C51.7237 3.23675 51.5017 2.82214 51.3512 2.37827L50.7736 3.18837C51.084 3.05459 51.7193 3.67893 52.0225 3.85731C52.3706 4.06907 52.7517 4.21748 53.1488 4.29589C53.4809 4.34792 54.4842 3.74589 53.9428 3.18103C53.2242 2.52075 52.4261 1.95867 51.5678 1.50873L50.622 2.5864C51.2737 2.87444 51.9034 3.21231 52.5061 3.5972C52.8599 3.78301 53.3508 3.83503 53.589 4.34044C53.589 4.13976 53.6324 3.93913 53.6613 3.73102C53.1508 4.23808 52.5504 4.63927 51.8926 4.91275C51.3584 5.16147 50.883 5.5266 50.4993 5.98298C49.9507 6.72622 51.0118 6.88975 51.3367 6.65191C51.9864 6.17624 52.6939 5.90869 53.322 5.36612C53.9501 4.82355 53.221 4.32561 52.7806 4.46682C52.5156 4.55559 52.2812 4.72135 52.1057 4.94423C51.9302 5.16712 51.821 5.43755 51.7914 5.72286C51.6398 6.4661 53.0261 6.24311 53.1704 5.51473L52.99 5.57425L52.4052 4.62287C51.907 5.02423 51.2572 5.28439 50.7302 5.67087L51.5678 6.33981C52.0884 5.8758 52.672 5.49267 53.3003 5.20263C53.8517 4.94167 54.3436 4.56439 54.7442 4.0952C54.8126 4.01351 54.8565 3.91309 54.8706 3.80623C54.8847 3.69938 54.8684 3.59063 54.8237 3.49313C54.5277 2.89854 54.0439 2.7945 53.589 2.57896C52.8875 2.15344 52.1645 1.76637 51.4232 1.41945C51.0839 1.30797 49.8279 2.08843 50.4776 2.49721C51.3356 2.95067 52.1339 3.51516 52.8528 4.17695L53.6469 3.06208C52.5062 2.8837 51.7554 1.57562 50.5497 2.06616C50.3187 2.16278 49.9001 2.43776 49.9651 2.88371C50.095 3.67155 50.7376 4.37016 51.0408 5.07624C51.4884 6.11678 51.9576 6.87492 52.8528 7.06073C54.1523 7.32087 56.2386 6.808 57.0905 5.26205C57.4731 4.5634 56.3685 4.58574 56.1592 4.74182C54.5493 5.89385 52.7373 6.28033 51.2213 7.71479C50.4993 8.37628 51.4595 8.88909 51.9432 8.5249C52.5857 8.03436 58.5921 6.62962 57.798 4.61543C57.502 3.87219 56.4551 4.00602 55.9426 4.00602C54.3471 4.00602 52.7589 4.34786 51.1634 4.333C50.9902 4.73435 50.8242 5.14314 50.6509 5.55193C51.8565 5.55193 53.0694 5.55193 54.2606 5.55193C55.2556 5.63076 56.2529 5.4331 57.1483 4.97962C57.2783 4.89786 57.5597 4.66744 57.5525 4.4073C57.5525 3.17352 55.755 3.42627 55.1919 3.4337C53.5675 3.4337 51.9359 3.67157 50.2899 3.18103C50.0156 3.09927 48.8459 3.46341 49.2502 4.15463C49.638 4.73273 50.1725 5.19033 50.7953 5.47762C51.1346 5.68573 51.4738 5.93843 51.8203 6.12424C52.1669 6.31005 52.398 6.2506 52.629 6.41412C52.629 6.13168 52.7011 5.8418 52.73 5.55937C51.676 6.53302 50.3261 6.78568 49.4164 8.11608C48.8461 8.94108 48.7665 10.3459 49.7989 10.5168C51.0406 10.7026 51.4162 9.10465 51.4017 7.70735C51.4017 6.17627 51.5388 3.38908 50.5353 2.37827C50.2104 2.05124 49.3874 2.37832 49.308 2.98778C49.077 4.83102 49.5608 6.64454 49.5825 8.47291C49.5825 9.35737 50.9324 8.99316 50.9541 8.26478C50.9357 7.06094 50.8076 5.86148 50.5714 4.6823C50.427 3.75325 50.2465 2.73501 49.6545 2.18501C49.3297 1.87285 48.4995 2.18506 48.4273 2.78709C48.2107 4.74925 48.55 6.71136 48.2613 8.68095L49.6329 8.31677C48.9109 5.99785 49.5896 3.11409 48.7449 0.817473C48.485 0.0742295 47.3011 0.520139 47.3805 1.33771C47.5032 3.77554 47.9147 6.25055 48.1962 8.68095C48.2684 9.30528 48.2469 10.383 48.6728 10.7695C49.0987 11.156 49.8855 10.8661 50.362 10.6431C52.1123 9.81648 53.7827 8.82104 55.3507 7.67015C56.2394 7.01531 57.1677 6.41949 58.13 5.88635C58.7923 5.651 59.3946 5.26491 59.8917 4.7567C59.9585 4.67414 60.0012 4.57383 60.0153 4.46737C60.0293 4.3609 60.014 4.25253 59.971 4.15463C59.675 3.41138 58.9676 3.31477 58.4478 3.13639C57.443 2.83454 56.4236 2.58646 55.3939 2.39314C53.1487 1.89517 50.9756 1.54589 48.8965 0.111428C48.4417 -0.200734 47.2071 0.698572 47.8136 1.11479L47.7993 1.07015Z" fill="black"/>
</g>
<defs>
<clipPath id="clip0_112_5064">
<rect width="60" height="11" fill="white"/>
</clipPath>
</defs>
</svg>
