<svg width="178" height="178" viewBox="0 0 178 178" fill="none" xmlns="http://www.w3.org/2000/svg">
<circle cx="89" cy="89" r="89" fill="#00CC81"/>
<g clip-path="url(#clip0_112_5125)">
<path d="M59.4997 122C61.4582 121.994 63.354 121.309 64.8647 120.062C66.3754 118.814 67.4075 117.082 67.7854 115.159C68.1632 113.235 67.8635 111.241 66.9372 109.514C66.0109 107.787 64.5153 106.435 62.7049 105.687C60.8945 104.939 58.8812 104.843 57.0076 105.413C55.134 105.984 53.5159 107.187 52.4287 108.817C51.3415 110.447 50.8524 112.404 51.0446 114.355C51.2367 116.305 52.0984 118.129 53.4828 119.515C55.0832 121.104 57.2454 121.997 59.4997 122ZM59.4997 107.589C60.4503 107.609 61.3815 107.862 62.2127 108.324C63.0438 108.786 63.7496 109.444 64.2689 110.241C64.7882 111.038 65.1052 111.95 65.1925 112.897C65.2798 113.845 65.1346 114.799 64.7697 115.678C64.4047 116.557 63.8309 117.333 63.0982 117.939C62.3655 118.546 61.496 118.964 60.5652 119.158C59.6343 119.351 58.6702 119.315 57.7567 119.051C56.8431 118.788 56.0077 118.305 55.3229 117.645C54.7762 117.101 54.3425 116.454 54.0467 115.742C53.751 115.029 53.599 114.265 53.5996 113.494C53.5989 112.715 53.7536 111.945 54.0546 111.227C54.3555 110.509 54.7967 109.859 55.3521 109.314C55.8956 108.767 56.5418 108.333 57.2537 108.037C57.9655 107.741 58.7289 107.589 59.4997 107.589Z" fill="black"/>
<path d="M118.471 122C120.721 121.976 122.876 121.086 124.488 119.515C126.081 117.911 126.975 115.741 126.975 113.479C126.975 111.218 126.081 109.048 124.488 107.443C122.876 105.872 120.721 104.983 118.471 104.958C117.311 104.89 116.149 105.06 115.057 105.458C113.965 105.855 112.966 106.472 112.12 107.27C111.275 108.068 110.602 109.03 110.141 110.098C109.681 111.166 109.443 112.316 109.443 113.479C109.443 114.642 109.681 115.793 110.141 116.861C110.602 117.928 111.275 118.891 112.12 119.689C112.966 120.487 113.965 121.103 115.057 121.501C116.149 121.898 117.311 122.068 118.471 122ZM118.471 107.589C119.247 107.585 120.016 107.735 120.733 108.031C121.45 108.327 122.101 108.763 122.648 109.314C123.2 109.858 123.638 110.506 123.937 111.221C124.237 111.936 124.391 112.704 124.391 113.479C124.391 114.254 124.237 115.022 123.937 115.737C123.638 116.452 123.2 117.101 122.648 117.645C122.104 118.201 121.454 118.644 120.737 118.946C120.02 119.248 119.249 119.404 118.471 119.404C117.693 119.404 116.923 119.248 116.205 118.946C115.488 118.644 114.838 118.201 114.294 117.645C113.448 116.829 112.867 115.776 112.628 114.625C112.388 113.473 112.502 112.276 112.953 111.19C113.404 110.104 114.172 109.179 115.156 108.537C116.141 107.894 117.296 107.564 118.471 107.589Z" fill="black"/>
<path d="M80.4712 113.494C80.4712 115.181 80.9706 116.83 81.9065 118.233C82.8424 119.636 84.1727 120.73 85.7295 121.377C87.2862 122.024 88.9996 122.194 90.6532 121.867C92.3068 121.54 93.8265 120.73 95.0205 119.54C96.2144 118.349 97.029 116.831 97.3613 115.177C97.6937 113.523 97.529 111.808 96.8879 110.248C96.2469 108.688 95.1583 107.353 93.7596 106.411C92.3609 105.47 90.7148 104.964 89.0292 104.958C86.7723 104.966 84.6104 105.869 83.0173 107.469C81.4241 109.069 80.5296 111.235 80.5296 113.494H80.4712ZM94.8709 113.494C94.8631 114.844 94.3884 116.15 93.5276 117.19C92.6667 118.23 91.4727 118.939 90.1484 119.198C88.8241 119.457 87.4511 119.249 86.2628 118.609C85.0744 117.97 84.1438 116.938 83.6292 115.69C83.1146 114.442 83.0476 113.054 83.4397 111.761C83.8317 110.469 84.6587 109.353 85.7799 108.602C86.9012 107.851 88.2478 107.511 89.5908 107.641C90.9339 107.771 92.1906 108.362 93.1476 109.314C93.6978 109.861 94.1335 110.513 94.4294 111.23C94.7252 111.948 94.8753 112.718 94.8709 113.494Z" fill="black"/>
<path d="M90.2851 77.9785V74.7923H90.6648C91.5837 74.79 92.4859 74.5467 93.2816 74.0866C94.0772 73.6266 94.7385 72.9659 95.1995 72.1704C95.6605 71.3749 95.9051 70.4723 95.9089 69.5527C95.9127 68.6331 95.6756 67.7286 95.2213 66.9293C94.7551 66.1329 94.0899 65.4716 93.291 65.0103C92.4921 64.5491 91.5871 64.3038 90.6648 64.2985H90.2851V59.0662H90.6648C91.0111 59.0623 91.3547 59.1276 91.6754 59.2585C91.9961 59.3893 92.2875 59.5829 92.5323 59.828C92.7772 60.0731 92.9707 60.3646 93.1014 60.6856C93.2322 61.0065 93.2975 61.3504 93.2936 61.697H95.9223C95.9146 60.3039 95.3583 58.97 94.374 57.985C93.3896 56.9999 92.0568 56.4431 90.6648 56.4354H90.2851V53.2493H87.6855V56.4354H87.3059C86.5845 56.3815 85.8597 56.4771 85.1769 56.7164C84.4941 56.9556 83.868 57.3333 83.3378 57.8258C82.8075 58.3183 82.3845 58.915 82.0953 59.5786C81.806 60.2422 81.6567 60.9584 81.6567 61.6823C81.6567 62.4063 81.806 63.1225 82.0953 63.7861C82.3845 64.4497 82.8075 65.0464 83.3378 65.5389C83.868 66.0314 84.4941 66.4091 85.1769 66.6483C85.8597 66.8875 86.5845 66.9832 87.3059 66.9293H87.6855V72.1616H87.3059C86.9596 72.1643 86.6162 72.0986 86.2954 71.9682C85.9746 71.8378 85.6828 71.6452 85.4365 71.4016C85.194 71.1606 85.0018 70.8736 84.8715 70.5574C84.7411 70.2412 84.675 69.9021 84.6771 69.56H82.0484C82.0483 70.2496 82.1845 70.9324 82.4491 71.5691C82.7137 72.2059 83.1014 72.784 83.59 73.2702C84.0786 73.7565 84.6584 74.1413 85.2961 74.4025C85.9338 74.6637 86.6168 74.7962 87.3059 74.7923H87.6855V77.9785H90.2851ZM87.3642 64.2985C86.9025 64.2988 86.4489 64.1774 86.0489 63.9465C85.649 63.7156 85.3169 63.3833 85.086 62.9831C84.8578 62.5876 84.7377 62.139 84.7377 61.6823C84.7377 61.2257 84.8578 60.7771 85.086 60.3816C85.3169 59.9814 85.649 59.6491 86.0489 59.4182C86.4489 59.1873 86.9025 59.0659 87.3642 59.0662H87.744V64.2985H87.3642ZM90.2851 66.9293H90.6648C91.1264 66.929 91.5799 67.0503 91.9798 67.2811C92.3796 67.5119 92.7117 67.8439 92.9426 68.2439C93.1736 68.6439 93.2951 69.0977 93.2952 69.5596C93.2953 70.0216 93.1738 70.4754 92.943 70.8754C92.7063 71.2682 92.3722 71.593 91.973 71.8184C91.5738 72.0437 91.1231 72.162 90.6648 72.1616H90.2851V66.9293Z" fill="black"/>
<path d="M116.514 97.0953H113.885C113.626 97.0911 113.371 97.1676 113.157 97.3141C112.942 97.4607 112.778 97.6702 112.688 97.9138C112.584 98.1468 112.554 98.4057 112.601 98.6563C112.648 98.9069 112.77 99.1373 112.951 99.3169L116.894 103.263C117.008 103.388 117.148 103.487 117.305 103.553C117.461 103.618 117.63 103.649 117.799 103.643C117.973 103.65 118.146 103.619 118.307 103.554C118.469 103.488 118.614 103.389 118.734 103.263L122.677 99.3169C122.865 99.136 122.994 98.9021 123.046 98.6463C123.098 98.3905 123.071 98.1248 122.969 97.8846C122.862 97.6488 122.69 97.4489 122.472 97.3089C122.254 97.1689 122.001 97.0947 121.742 97.0953H119.114V90.5477C119.118 90.3738 119.086 90.201 119.022 90.0396C118.957 89.8782 118.86 89.7316 118.738 89.6086C118.615 89.4857 118.468 89.3889 118.307 89.3243C118.146 89.2596 117.973 89.2283 117.799 89.2323H90.285V85.2861C95.3825 84.9486 100.149 82.6412 103.578 78.8515C107.007 75.0618 108.83 70.0865 108.661 64.9768C108.492 59.8671 106.345 55.0231 102.674 51.4683C99.0024 47.9134 94.0939 45.926 88.9853 45.926C83.8767 45.926 78.9682 47.9134 75.2968 51.4683C71.6253 55.0231 69.4784 59.8671 69.3096 64.9768C69.1409 70.0865 70.9635 75.0618 74.3925 78.8515C77.8214 82.6412 82.5881 84.9486 87.6855 85.2861V89.2323H60.1713C59.8227 89.2323 59.4884 89.3709 59.2419 89.6175C58.9954 89.8642 58.8569 90.1988 58.8569 90.5477V97.0953H56.2282C55.9695 97.0947 55.7161 97.1689 55.4985 97.3089C55.2809 97.4489 55.1083 97.6488 55.0015 97.8846C54.8991 98.1248 54.8722 98.3905 54.9244 98.6463C54.9766 98.9021 55.1053 99.136 55.2935 99.3169L59.2366 103.263C59.3566 103.389 59.502 103.488 59.6631 103.554C59.8243 103.619 59.9975 103.65 60.1713 103.643C60.3407 103.649 60.5095 103.618 60.6659 103.553C60.8222 103.487 60.9624 103.388 61.0767 103.263L65.0199 99.3169C65.2081 99.136 65.3369 98.9021 65.389 98.6463C65.4412 98.3905 65.4143 98.1248 65.312 97.8846C65.2051 97.6488 65.0325 97.4489 64.8149 97.3089C64.5973 97.1689 64.3439 97.0947 64.0852 97.0953H61.4565V91.8338H87.7439V97.0953H85.1152C84.8565 97.0947 84.6031 97.1689 84.3855 97.3089C84.1679 97.4489 83.9953 97.6488 83.8885 97.8846C83.7861 98.1248 83.7592 98.3905 83.8114 98.6463C83.8636 98.9021 83.9923 99.136 84.1805 99.3169L88.1236 103.263C88.2403 103.385 88.3809 103.482 88.5367 103.548C88.6925 103.613 88.8602 103.646 89.0291 103.643C89.2029 103.65 89.3761 103.619 89.5373 103.554C89.6984 103.488 89.8438 103.389 89.9638 103.263L93.9069 99.3169C94.0951 99.136 94.2239 98.9021 94.276 98.6463C94.3282 98.3905 94.3013 98.1248 94.199 97.8846C94.0921 97.6488 93.9195 97.4489 93.7019 97.3089C93.4843 97.1689 93.2309 97.0947 92.9722 97.0953H90.3435V91.8338H116.631L116.514 97.0953ZM71.9422 65.6138C71.9485 61.68 73.3168 57.87 75.8141 54.8322C78.3115 51.7945 81.7837 49.7167 85.6395 48.9526C89.4954 48.1885 93.4968 48.7854 96.9624 50.6415C100.428 52.4976 103.144 55.4983 104.648 59.1329C106.151 62.7674 106.35 66.8112 105.21 70.5758C104.07 74.3404 101.661 77.5933 98.3939 79.7807C95.1269 81.968 91.2033 82.9548 87.2912 82.5729C83.379 82.191 79.7199 80.4641 76.9369 77.6861C73.7408 74.4823 71.9447 70.1409 71.9422 65.6138Z" fill="black"/>
</g>
<defs>
<clipPath id="clip0_112_5125">
<rect width="76" height="76" fill="white" transform="translate(51 46)"/>
</clipPath>
</defs>
</svg>
