<svg width="178" height="178" viewBox="0 0 178 178" fill="none" xmlns="http://www.w3.org/2000/svg">
<circle cx="89" cy="89" r="89" fill="#E1FAEB"/>
<g clip-path="url(#clip0_179_6)">
<path d="M113.792 127C113.571 127 113.353 126.956 113.149 126.87C112.945 126.785 112.76 126.66 112.606 126.502C112.451 126.344 112.329 126.157 112.247 125.952C112.166 125.747 112.126 125.527 112.13 125.307V123.428H111.637C109.853 123.015 108.22 122.109 106.925 120.813C105.629 119.518 104.723 117.886 104.31 116.101V115.608H102.432C102.192 115.641 101.949 115.622 101.717 115.552C101.486 115.483 101.272 115.365 101.09 115.206C100.908 115.047 100.762 114.851 100.662 114.631C100.562 114.411 100.51 114.172 100.51 113.931C100.51 113.689 100.562 113.45 100.662 113.23C100.762 113.01 100.908 112.814 101.09 112.655C101.272 112.496 101.486 112.378 101.717 112.309C101.949 112.239 102.192 112.22 102.432 112.253H104.31V111.76C104.723 109.975 105.629 108.343 106.925 107.047C108.22 105.752 109.853 104.846 111.637 104.432H112.13V102.524C112.13 102.08 112.304 101.654 112.615 101.337C112.926 101.02 113.349 100.839 113.792 100.83C114.242 100.83 114.672 101.009 114.989 101.326C115.307 101.644 115.486 102.074 115.486 102.524V104.432H115.978C117.761 104.849 119.392 105.756 120.687 107.051C121.982 108.346 122.889 109.977 123.306 111.76V112.253H125.215C125.454 112.22 125.698 112.239 125.929 112.309C126.16 112.378 126.374 112.496 126.556 112.655C126.738 112.814 126.884 113.01 126.984 113.23C127.084 113.45 127.136 113.689 127.136 113.931C127.136 114.172 127.084 114.411 126.984 114.631C126.884 114.851 126.738 115.047 126.556 115.206C126.374 115.365 126.16 115.483 125.929 115.552C125.698 115.622 125.454 115.641 125.215 115.608H123.306V116.101C122.889 117.884 121.982 119.515 120.687 120.81C119.392 122.105 117.761 123.012 115.978 123.428H115.486V125.307C115.486 125.756 115.307 126.186 114.989 126.504C114.672 126.821 114.242 127 113.792 127ZM113.792 107.449C112.532 107.449 111.299 107.823 110.251 108.524C109.203 109.224 108.387 110.219 107.904 111.384C107.422 112.548 107.296 113.83 107.542 115.066C107.788 116.302 108.395 117.438 109.286 118.329C110.177 119.221 111.313 119.827 112.549 120.073C113.785 120.319 115.067 120.193 116.231 119.71C117.396 119.228 118.391 118.411 119.091 117.363C119.791 116.315 120.165 115.083 120.165 113.823C120.165 112.986 120 112.157 119.68 111.384C119.36 110.61 118.89 109.908 118.299 109.316C117.707 108.724 117.004 108.255 116.231 107.935C115.458 107.614 114.629 107.449 113.792 107.449ZM86.0835 122.412C78.5453 122.399 71.2001 120.028 65.0775 115.63C58.9549 111.233 54.3619 105.029 51.9423 97.89C49.5228 90.7506 49.3979 83.0331 51.5853 75.8192C53.7727 68.6053 58.1626 62.2568 64.1398 57.6634C70.1169 53.0701 77.3816 50.4623 84.9155 50.2055C92.4493 49.9488 99.8744 52.0561 106.15 56.2319C112.426 60.4077 117.239 66.4427 119.912 73.491C122.585 80.5392 122.986 88.2471 121.058 95.5347C120.959 95.8929 120.746 96.2096 120.452 96.437C120.158 96.6645 119.798 96.7907 119.426 96.7971C119.285 96.8289 119.137 96.8289 118.995 96.7971C118.563 96.6814 118.195 96.3996 117.97 96.0131C117.745 95.6267 117.682 95.1669 117.795 94.7342C119.441 88.5563 119.249 82.0324 117.242 75.962C115.235 69.8917 111.5 64.5387 106.495 60.5599L105.787 60.0059L104.926 62.6228C104.859 62.8385 104.748 63.0378 104.6 63.2076C104.451 63.3774 104.268 63.5137 104.063 63.6079L97.9059 66.6866L96.9821 73.2136L101.231 79.5869C101.467 79.9649 101.548 80.4198 101.456 80.856C101.364 81.2923 101.107 81.6761 100.738 81.9268L95.2582 85.5903L98.9217 91.0706C99.1704 91.4641 99.2588 91.9377 99.1683 92.3943L97.444 101.046L100.523 101.785C100.956 101.901 101.327 102.181 101.557 102.566C101.787 102.952 101.858 103.411 101.754 103.848C101.659 104.208 101.448 104.528 101.153 104.756C100.858 104.984 100.496 105.108 100.123 105.11C99.9907 105.139 99.8541 105.139 99.7223 105.11L95.1041 103.97C94.6798 103.861 94.3145 103.592 94.0849 103.218C93.8552 102.845 93.779 102.398 93.8725 101.97L96.0279 92.333L91.81 86.0214C91.6872 85.8379 91.602 85.6319 91.5597 85.4152C91.5174 85.1985 91.5186 84.9752 91.5634 84.759C91.6512 84.3217 91.905 83.9356 92.2715 83.6815L97.7826 80.0179L94.1191 74.5068C93.8782 74.1677 93.7786 73.748 93.8417 73.3369L95.0117 65.3013C95.0423 65.0289 95.14 64.7682 95.2958 64.5425C95.4516 64.3169 95.6607 64.1333 95.9046 64.0081L102.062 60.9294L103.017 58.0971L102.586 57.8506C98.3342 55.4083 93.5901 53.9479 88.7012 53.5759C83.8122 53.204 78.902 53.9299 74.3299 55.7009C69.7579 57.4718 65.6399 60.243 62.2772 63.8112C58.9145 67.3794 56.3925 71.6542 54.8956 76.3232V76.7234L55.2342 76.97L61.3917 83.1275L66.102 81.2491C66.3049 81.2059 66.515 81.2059 66.718 81.2491H67.0566L72.8139 82.4191C73.1176 82.4842 73.398 82.6302 73.6256 82.8415C73.8532 83.0529 74.0197 83.3218 74.1071 83.6199L77.1858 95.4118L83.3434 97.4127C83.7222 97.551 84.0406 97.8178 84.2431 98.1666C84.4456 98.5153 84.5194 98.9239 84.4517 99.3215L82.1734 111.976C82.0898 112.358 81.8844 112.704 81.5883 112.961L76.0467 117.579L77.155 117.917C80.1597 118.768 83.2687 119.193 86.3913 119.18C89.2499 119.183 92.0965 118.81 94.8579 118.071H95.289C95.6621 118.073 96.0241 118.197 96.3192 118.425C96.6142 118.654 96.8255 118.973 96.9205 119.333C96.9823 119.55 96.9978 119.777 96.966 120C96.9341 120.223 96.8559 120.436 96.7359 120.627C96.508 121.004 96.1443 121.279 95.7197 121.396C92.607 122.152 89.4084 122.493 86.2064 122.412H86.0835ZM53.5716 81.6186C53.3505 83.1378 53.2374 84.6711 53.2329 86.2063C53.2641 92.4013 55.0317 98.4632 58.3351 103.704C61.6386 108.945 66.3452 113.155 71.9209 115.855H72.2903L78.756 110.467L80.6957 99.845L75.1846 97.9978C74.9223 97.9163 74.6855 97.7685 74.4968 97.569C74.3081 97.3695 74.1739 97.1251 74.1071 96.8587L71.0283 85.1901L66.7796 84.3587L61.5146 86.4525C61.3017 86.4992 61.0812 86.4992 60.8682 86.4525C60.6497 86.4563 60.4327 86.4144 60.2312 86.3296C60.0297 86.2447 59.8482 86.1188 59.6983 85.9598L53.8485 80.1408L53.5716 81.6186Z" fill="black"/>
</g>
<defs>
<clipPath id="clip0_179_6">
<rect width="77" height="77" fill="white" transform="translate(50 50)"/>
</clipPath>
</defs>
</svg>
