<svg width="178" height="178" viewBox="0 0 178 178" fill="none" xmlns="http://www.w3.org/2000/svg">
<circle cx="89" cy="89" r="89" fill="#8EEDD2"/>
<g clip-path="url(#clip0_112_5124)">
<path fill-rule="evenodd" clip-rule="evenodd" d="M121.094 57H57.9634C56.1215 57 54.3547 57.7269 53.0497 59.0216C51.7446 60.3164 51.0076 62.0735 51 63.9083V103.237C51.0227 105.062 51.7663 106.804 53.0698 108.086C54.3732 109.369 56.1314 110.088 57.9634 110.088H76.5803V116.767H69.0703C67.5936 116.669 66.136 117.141 65 118.086C63.864 119.031 63.137 120.375 62.9701 121.84V124.42C62.9701 125.135 63.2551 125.82 63.7623 126.325C64.2696 126.831 64.9576 127.115 65.6749 127.115H113.268C113.637 127.138 114.007 127.086 114.356 126.961C114.704 126.836 115.023 126.642 115.293 126.389C115.562 126.136 115.777 125.831 115.924 125.493C116.07 125.154 116.146 124.789 116.145 124.42V122.012C115.978 120.553 115.255 119.213 114.126 118.269C112.996 117.324 111.545 116.848 110.074 116.939H102.535V110.088H121.18C123.02 110.088 124.784 109.36 126.084 108.064C127.384 106.769 128.115 105.012 128.115 103.179V63.9083C128.115 62.0761 127.384 60.3189 126.084 59.0234C124.784 57.7278 123.02 57 121.18 57H121.094ZM113.67 121.898V124.42C113.671 124.46 113.662 124.5 113.646 124.537C113.63 124.574 113.606 124.607 113.576 124.634C113.546 124.661 113.511 124.681 113.473 124.694C113.435 124.706 113.394 124.711 113.354 124.707H65.6749C65.636 124.711 65.5965 124.707 65.5595 124.694C65.5225 124.682 65.4889 124.661 65.4612 124.633C65.4335 124.605 65.4124 124.572 65.3996 124.535C65.3868 124.498 65.3825 124.459 65.3871 124.42V122.012C65.3871 120.55 67.0561 119.318 69.0703 119.318H109.987C111.973 119.318 113.67 120.55 113.67 122.012V121.898ZM100.031 116.824H78.9974V110.088H100.031V116.767V116.824ZM125.612 103.237C125.612 104.43 125.136 105.575 124.289 106.419C123.441 107.263 122.292 107.737 121.094 107.737H57.9634C56.7626 107.737 55.6105 107.264 54.7588 106.421C53.907 105.578 53.4246 104.433 53.417 103.237V63.9083C53.417 63.3148 53.5348 62.7273 53.7637 62.1794C53.9925 61.6315 54.3278 61.1341 54.7504 60.7158C55.1729 60.2975 55.6743 59.9666 56.2257 59.7422C56.7772 59.5177 57.3677 59.4041 57.9634 59.4079H121.094C122.292 59.4079 123.441 59.882 124.289 60.726C125.136 61.57 125.612 62.7147 125.612 63.9083V103.237ZM121.238 61.7871H57.9346C57.6715 61.7833 57.4102 61.8316 57.166 61.9293C56.9218 62.027 56.6995 62.1721 56.5121 62.3561C56.3246 62.5402 56.1758 62.7595 56.0742 63.0014C55.9727 63.2432 55.9204 63.5028 55.9204 63.7649V99.3096C55.9204 99.6289 56.0477 99.9351 56.2743 100.161C56.501 100.387 56.8084 100.514 57.1289 100.514H121.9C122.22 100.514 122.528 100.387 122.754 100.161C122.981 99.9351 123.108 99.6289 123.108 99.3096V63.7649C123.108 63.2404 122.899 62.7373 122.527 62.3664C122.155 61.9954 121.649 61.7871 121.123 61.7871H121.238ZM120.835 98.1057H58.2223V64.2236H120.835V98.1057ZM91.4566 94.8665H95.0822C95.5988 94.8591 96.0922 94.6514 96.4575 94.2874C96.8229 93.9234 97.0314 93.4319 97.0389 92.9173V79.5307C97.0314 79.0161 96.8229 78.5246 96.4575 78.1606C96.0922 77.7966 95.5988 77.5889 95.0822 77.5815H91.4566C91.1997 77.5805 90.9451 77.6308 90.708 77.7292C90.4708 77.8277 90.2557 77.9724 90.0755 78.1548C89.7183 78.526 89.5131 79.0167 89.5 79.5307V92.8886C89.5075 93.4033 89.716 93.8948 90.0813 94.2587C90.4467 94.6227 90.94 94.8304 91.4566 94.8378V94.8665ZM91.917 79.9894H94.6218V92.4586H91.917V79.9894ZM110.39 94.8665H113.987C114.263 94.895 114.541 94.8648 114.805 94.7778C115.068 94.6909 115.309 94.5492 115.513 94.3622C115.718 94.1752 115.879 93.9471 115.988 93.693C116.097 93.439 116.151 93.1648 116.145 92.8886V69.3833C116.149 69.1262 116.101 68.871 116.004 68.6328C115.907 68.3946 115.763 68.1781 115.581 67.9964C115.398 67.8146 115.181 67.6712 114.942 67.5746C114.703 67.478 114.446 67.4302 114.188 67.4341H110.39C110.132 67.4302 109.876 67.478 109.637 67.5746C109.398 67.6712 109.18 67.8146 108.998 67.9964C108.815 68.1781 108.671 68.3946 108.575 68.6328C108.478 68.871 108.43 69.1262 108.434 69.3833V92.8886C108.441 93.4033 108.649 93.8948 109.015 94.2587C109.38 94.6227 109.874 94.8304 110.39 94.8378V94.8665ZM110.908 69.9566H113.613V92.5733H110.908V69.9566ZM80.0332 92.8886C80.0332 93.4056 80.2394 93.9014 80.6064 94.2669C80.9733 94.6325 81.471 94.8378 81.9899 94.8378H85.5867C86.1056 94.8378 86.6033 94.6325 86.9703 94.2669C87.3372 93.9014 87.5433 93.4056 87.5433 92.8886V84.6331C87.5434 84.3784 87.4926 84.1263 87.3939 83.8914C87.2952 83.6565 87.1506 83.4435 86.9686 83.2648C86.7865 83.0861 86.5705 82.9452 86.3333 82.8504C86.0961 82.7556 85.8423 82.7087 85.5867 82.7125H81.9899C81.7343 82.7087 81.4805 82.7556 81.2433 82.8504C81.0061 82.9452 80.7901 83.0861 80.6081 83.2648C80.426 83.4435 80.2814 83.6565 80.1827 83.8914C80.084 84.1263 80.0332 84.3784 80.0332 84.6331V92.8886ZM82.4215 85.0631H85.1263V92.43H82.4215V85.0631ZM100.952 94.8378H104.635C105.152 94.8304 105.645 94.6227 106.011 94.2587C106.376 93.8948 106.584 93.4033 106.592 92.8886V74.199C106.592 73.6821 106.386 73.1863 106.019 72.8207C105.652 72.4552 105.154 72.2498 104.635 72.2498H101.01C100.491 72.2498 99.9931 72.4552 99.6262 72.8207C99.2592 73.1863 99.0531 73.6821 99.0531 74.199V92.8886C99.0605 93.4033 99.269 93.8948 99.6344 94.2587C99.9997 94.6227 100.493 94.8304 101.01 94.8378H100.952ZM101.413 74.6003H104.117V92.43H101.413V74.6003ZM70.1061 86.181C72.1277 86.1867 74.1054 85.5947 75.789 84.48C77.4726 83.3653 78.7864 81.778 79.5639 79.919C80.3415 78.0601 80.5479 76.0131 80.157 74.0373C79.7661 72.0614 78.7955 70.2456 77.3681 68.8195C75.9407 67.3935 74.1206 66.4215 72.1383 66.0265C70.156 65.6315 68.1007 65.8314 66.2325 66.6007C64.3643 67.3701 62.7673 68.6744 61.6436 70.3484C60.5199 72.0225 59.9201 73.9911 59.92 76.0049C59.92 78.6988 60.9923 81.2828 62.9017 83.1904C64.8112 85.0979 67.402 86.1734 70.1061 86.181ZM70.1061 68.2367C71.6484 68.2367 73.156 68.6923 74.4384 69.5459C75.7207 70.3995 76.7202 71.6127 77.3104 73.0321C77.9006 74.4516 78.055 76.0135 77.7541 77.5204C77.4532 79.0273 76.7106 80.4115 75.62 81.4979C74.5295 82.5843 73.1401 83.3241 71.6274 83.6239C70.1148 83.9236 68.5469 83.7698 67.122 83.1818C65.6971 82.5939 64.4793 81.5982 63.6225 80.3207C62.7656 79.0432 62.3083 77.5413 62.3083 76.0049C62.3159 73.947 63.1399 71.9755 64.6006 70.5203C66.0613 69.0651 68.0403 68.2442 70.1061 68.2367Z" fill="black"/>
<path fill-rule="evenodd" clip-rule="evenodd" d="M70.6239 82.3112V80.7059H70.8254C71.2874 80.7055 71.741 80.5832 72.1402 80.3516C72.5395 80.12 72.8701 79.7874 73.0985 79.3873C73.3301 78.9879 73.4524 78.5349 73.4532 78.0736C73.4541 77.6123 73.3335 77.1588 73.1034 76.7585C72.8734 76.3581 72.5419 76.0249 72.1422 75.7921C71.7425 75.5592 71.2884 75.4349 70.8254 75.4316H70.6239V72.823H70.8254C71.1692 72.8234 71.4995 72.957 71.7462 73.1957C72.0006 73.4456 72.1454 73.7857 72.149 74.1416H73.4726C73.4738 73.7952 73.4057 73.4521 73.2723 73.1322C73.1389 72.8123 72.9429 72.522 72.6957 72.2784C72.1981 71.7863 71.5265 71.5084 70.8254 71.5045H70.6239V69.9565H69.3003V71.5618H69.0989C68.6363 71.5593 68.1815 71.6803 67.7818 71.9122C67.382 72.144 67.0519 72.4784 66.8257 72.8804C66.5846 73.2783 66.4571 73.7342 66.4571 74.199C66.4571 74.6637 66.5846 75.1197 66.8257 75.5176C67.0564 75.9156 67.3875 76.2467 67.7863 76.478C68.185 76.7093 68.6375 76.8328 69.0989 76.8362H69.3003V79.4733H69.0989C68.9263 79.471 68.756 79.4342 68.5978 79.3653C68.4397 79.2964 68.297 79.1967 68.1781 79.072C68.0503 78.9557 67.9484 78.814 67.879 78.656C67.8096 78.498 67.7743 78.3272 67.7753 78.1547H66.4517C66.4556 78.8532 66.7346 79.5223 67.2286 80.018C67.7373 80.4932 68.4019 80.7683 69.0989 80.7919H69.3003V82.3972L70.6239 82.3112ZM69.0989 75.4316C68.87 75.4303 68.6456 75.3686 68.4485 75.2528C68.2514 75.1369 68.0886 74.9712 67.9767 74.7723C67.8514 74.575 67.7848 74.3464 67.7848 74.113C67.7848 73.8795 67.8514 73.6509 67.9767 73.4537C68.0886 73.2548 68.2514 73.089 68.4485 72.9732C68.6456 72.8574 68.87 72.7957 69.0989 72.7944H69.3003V75.4316H69.0989ZM70.6239 76.7502H70.8254C71.0574 76.7549 71.2844 76.8178 71.4856 76.933C71.6867 77.0482 71.8555 77.2121 71.9763 77.4095C72.0897 77.6108 72.1494 77.8378 72.1494 78.0687C72.1494 78.2996 72.0897 78.5267 71.9763 78.728C71.8555 78.9254 71.6867 79.0893 71.4856 79.2045C71.2844 79.3197 71.0574 79.3826 70.8254 79.3873H70.6239V76.7502Z" fill="black"/>
<path d="M70.9981 82.6552H68.9551V81.05C68.2162 81.0244 67.5155 80.7164 66.9984 80.19C66.431 79.6284 66.1102 78.8656 66.1064 78.0688V77.6961H68.1494V78.0688C68.1448 78.1931 68.1683 78.3169 68.2181 78.431C68.2679 78.5451 68.3427 78.6466 68.4372 78.7281C68.5734 78.8779 68.7555 78.9786 68.9551 79.0147V77.0942C68.4522 77.0804 67.9617 76.9355 67.5326 76.674C67.1034 76.4124 66.7506 76.0434 66.5093 75.6036C66.2567 75.1678 66.1238 74.6735 66.1238 74.1703C66.1238 73.6672 66.2567 73.1729 66.5093 72.7371C66.7506 72.2973 67.1034 71.9283 67.5326 71.6667C67.9617 71.4052 68.4522 71.2603 68.9551 71.2465V69.5266H70.9981V71.1319C71.7331 71.1739 72.4281 71.4793 72.9547 71.9918C73.5065 72.5614 73.8157 73.3215 73.8179 74.113V74.457H71.775V74.113C71.7799 73.9844 71.7567 73.8563 71.707 73.7375C71.6573 73.6187 71.5823 73.5121 71.4872 73.4251C71.3599 73.2842 71.1866 73.1928 70.9981 73.1671V75.0876C71.5232 75.0816 72.0401 75.2188 72.4925 75.4845C72.945 75.7503 73.3158 76.1343 73.5648 76.5949C73.8138 77.0556 73.9315 77.5754 73.9051 78.098C73.8787 78.6205 73.7093 79.1259 73.4151 79.5594C73.1763 79.9951 72.828 80.3615 72.4043 80.6228C71.9806 80.8841 71.496 81.0313 70.9981 81.05V82.6552ZM69.6745 81.9386H70.2787V80.3333H70.8254C71.228 80.3378 71.6245 80.2357 71.9745 80.0374C72.3244 79.8391 72.6152 79.5518 72.8172 79.2048C73.0191 78.8579 73.125 78.4637 73.1239 78.0627C73.1228 77.6616 73.0147 77.268 72.8109 76.9222C72.6032 76.5804 72.3124 76.2961 71.9654 76.0957C71.6185 75.8954 71.2264 75.7853 70.8254 75.7756H70.2787V72.4218H70.8254C71.265 72.4363 71.6843 72.6095 72.0052 72.9091C72.2241 73.1448 72.3821 73.4301 72.4656 73.7404H72.9835C72.9147 73.2712 72.6921 72.8379 72.3505 72.5078C71.9255 72.0757 71.3463 71.8284 70.7391 71.8198H70.1924V70.2432H69.5882V71.8198H69.0126C68.6148 71.8262 68.2255 71.9352 67.8826 72.1361C67.5397 72.3371 67.2549 72.6231 67.056 72.9664C66.8451 73.312 66.7336 73.7086 66.7336 74.113C66.7336 74.5174 66.8451 74.9141 67.056 75.2596C67.2563 75.5995 67.5421 75.8813 67.8853 76.0774C68.2285 76.2735 68.617 76.3769 69.0126 76.3776H69.5882V79.7314H69.0126C68.5701 79.7312 68.1458 79.5559 67.8329 79.2441C67.6089 79.012 67.4501 78.7253 67.3725 78.4128H66.7682C66.841 78.889 67.0625 79.3303 67.4013 79.674C67.6132 79.8841 67.8646 80.0504 68.1411 80.1635C68.4176 80.2767 68.7137 80.3344 69.0126 80.3333H69.5882L69.6745 81.9386ZM70.8254 79.7314H70.2787V76.3776H70.8254C71.1201 76.3816 71.4084 76.4633 71.6611 76.6143C71.9138 76.7654 72.1219 76.9804 72.2641 77.2375C72.4196 77.4871 72.502 77.775 72.502 78.0688C72.502 78.3625 72.4196 78.6505 72.2641 78.9001C72.1205 79.1538 71.9114 79.3647 71.6584 79.5109C71.4055 79.657 71.1179 79.7332 70.8254 79.7314ZM70.9981 77.1228V79.0147C71.2693 78.9514 71.506 78.7874 71.6599 78.5561C71.7355 78.4219 71.7783 78.2718 71.7845 78.118C71.7907 77.9643 71.7603 77.8112 71.6958 77.6714C71.6312 77.5316 71.5343 77.409 71.4131 77.3136C71.2918 77.2183 71.1496 77.1529 70.9981 77.1228ZM69.6745 75.6896H69.099C68.8071 75.6884 68.5207 75.6111 68.2682 75.4652C68.0158 75.3193 67.8062 75.1101 67.6602 74.8583C67.5048 74.6087 67.4224 74.3208 67.4224 74.027C67.4224 73.7333 67.5048 73.4453 67.6602 73.1957C67.8047 72.9405 68.0133 72.7271 68.2655 72.5763C68.5177 72.4256 68.8049 72.3427 69.099 72.3358H69.6745V75.6896ZM68.9551 73.0811C68.8133 73.1024 68.6779 73.1546 68.5586 73.2338C68.4392 73.3131 68.3388 73.4175 68.2645 73.5397C68.1787 73.6879 68.1335 73.8559 68.1335 74.027C68.1335 74.1981 68.1787 74.3662 68.2645 74.5143C68.3429 74.6329 68.4445 74.7347 68.5631 74.8134C68.6817 74.8922 68.815 74.9465 68.9551 74.973V73.0811Z" fill="black"/>
</g>
<defs>
<clipPath id="clip0_112_5124">
<rect width="77" height="70" fill="white" transform="translate(51 57)"/>
</clipPath>
</defs>
</svg>
