<svg width="178" height="178" viewBox="0 0 178 178" fill="none" xmlns="http://www.w3.org/2000/svg">
<circle cx="89" cy="89" r="89" fill="#F6F6F6"/>
<path d="M78.006 103.434V116.196C78.006 122.155 82.9312 127 89.0043 127C95.0681 127 99.9941 122.153 99.9941 116.196V103.51C108.411 99.3889 113.677 90.9876 113.677 81.8622C113.677 75.3098 111.045 69.1751 106.263 64.5884C101.286 59.8139 94.4308 57.3154 87.4536 57.7322C81.267 58.0947 75.4356 60.7917 71.1008 65.2948C66.7485 69.8114 64.3447 75.6642 64.3234 81.7762C64.2915 91.0162 69.5891 99.4191 78.0064 103.434L78.006 103.434ZM97.2456 108.613V113.331H80.7545V108.613H97.2456ZM88.9952 124.129C84.4479 124.129 80.7484 120.669 80.7454 116.126H97.2537C97.2513 120.669 93.5525 124.129 88.9953 124.129H88.9952ZM73.0648 67.2514C76.9237 63.2439 82.1121 60.8451 87.6178 60.5225C88.0675 60.4957 88.5166 60.482 88.9644 60.482C94.7154 60.482 100.271 62.6805 104.38 66.6212C108.606 70.6749 110.933 76.0864 110.933 81.8611C110.933 90.1756 105.881 97.8211 98.0683 101.338C97.5701 101.561 97.248 102.062 97.2462 102.616V105.816H90.3749V98.317L95.1295 88.9703C97.4375 89.6355 99.9185 89.1182 101.784 87.5843C103.648 86.0504 104.664 83.691 104.508 81.2567L103.88 71.3473C103.88 71.3392 103.878 71.3317 103.877 71.3242C103.873 71.2811 103.868 71.2381 103.86 71.195C103.857 71.1831 103.856 71.1707 103.854 71.1582V71.1588C103.843 71.1064 103.83 71.0546 103.814 71.0041C103.81 70.9928 103.805 70.9816 103.801 70.9704C103.788 70.931 103.773 70.8924 103.755 70.8543C103.749 70.8393 103.742 70.825 103.735 70.81C103.717 70.7732 103.697 70.737 103.675 70.702C103.669 70.6914 103.663 70.6808 103.656 70.6708V70.6702C103.627 70.624 103.594 70.5797 103.56 70.5379L103.557 70.5342C103.524 70.4949 103.488 70.4568 103.451 70.4212C103.44 70.4112 103.43 70.4025 103.419 70.3931C103.389 70.3663 103.358 70.3401 103.325 70.3158C103.312 70.3064 103.3 70.2964 103.287 70.287C103.251 70.2621 103.214 70.239 103.176 70.2172C103.168 70.2128 103.16 70.2072 103.152 70.2028C103.151 70.2016 103.149 70.2009 103.147 70.2003C103.145 70.1991 103.143 70.1978 103.14 70.1966V70.1959C103.094 70.1716 103.047 70.1504 102.998 70.1317C102.987 70.1273 102.976 70.1242 102.965 70.1204C102.925 70.1055 102.883 70.093 102.842 70.0824C102.828 70.0786 102.814 70.0755 102.8 70.0724C102.758 70.063 102.717 70.0555 102.674 70.0505C102.663 70.0493 102.652 70.0474 102.641 70.0462H102.641C102.535 70.0362 102.428 70.0381 102.323 70.0524C102.308 70.0543 102.294 70.0574 102.279 70.0599C102.241 70.0668 102.203 70.0749 102.166 70.0842C102.151 70.088 102.135 70.0924 102.119 70.0967V70.0973C102.072 70.1111 102.025 70.1279 101.981 70.1466C101.977 70.1479 101.974 70.1491 101.971 70.1504H101.97C101.921 70.1722 101.873 70.1966 101.827 70.2234C101.822 70.2259 101.817 70.2278 101.813 70.2303L93.3706 75.2587C91.938 76.118 90.8319 77.4435 90.2313 79.021C89.6313 80.5979 89.5712 82.3358 90.0614 83.952L90.0632 83.9589C90.5233 85.4578 91.4326 86.7719 92.6639 87.7186L87.7656 97.333C87.7527 97.358 87.7429 97.3842 87.7312 97.4104L87.0404 96.1031V96.1025C88.9129 94.5493 89.9177 92.1617 89.7313 89.7112C89.5442 87.2612 88.1896 85.0597 86.1042 83.8178L77.6697 78.7938C77.663 78.7901 77.6562 78.787 77.6495 78.7832C77.6121 78.762 77.574 78.7427 77.5354 78.7246C77.5249 78.7196 77.5145 78.7139 77.5035 78.7096V78.7108C77.4562 78.6902 77.4078 78.6728 77.3581 78.6584C77.3433 78.654 77.328 78.6509 77.3133 78.6472C77.2771 78.6378 77.2403 78.6297 77.2035 78.6235C77.1863 78.6203 77.1691 78.6178 77.1519 78.6154C77.1121 78.6104 77.0716 78.6066 77.0317 78.6047C77.02 78.6047 77.0084 78.6029 76.9961 78.6029C76.9427 78.6022 76.8893 78.6041 76.8366 78.6097C76.8286 78.6097 76.8213 78.6122 76.8139 78.6129C76.7691 78.6185 76.7243 78.626 76.6801 78.6359C76.6654 78.6391 76.6507 78.6428 76.636 78.6472C76.5979 78.6572 76.5605 78.669 76.5231 78.6821C76.5084 78.6877 76.493 78.6927 76.4783 78.6983H76.4771C76.4329 78.7158 76.39 78.7358 76.3476 78.7583C76.3421 78.7607 76.3366 78.7626 76.3317 78.7657L76.3292 78.7676L76.3262 78.7689L76.3255 78.7682C76.2789 78.7944 76.2341 78.8225 76.1906 78.8537C76.1795 78.8618 76.1685 78.8712 76.1581 78.8787C76.1249 78.9037 76.093 78.9299 76.0623 78.9579C76.0507 78.9679 76.0403 78.9779 76.0298 78.9885C75.9979 79.0191 75.9685 79.0509 75.9403 79.084C75.9335 79.0921 75.9261 79.0996 75.92 79.1077L75.9194 79.1071C75.8844 79.1495 75.8525 79.1938 75.8231 79.24C75.8206 79.2437 75.8188 79.2475 75.8163 79.2512C75.7912 79.2924 75.7679 79.3349 75.7464 79.3779C75.7396 79.3923 75.7329 79.4066 75.7268 79.421C75.7108 79.4559 75.6967 79.4927 75.6832 79.5296C75.6783 79.5445 75.6728 79.5589 75.6679 79.5745V79.5751C75.6519 79.6257 75.6384 79.6774 75.628 79.7299C75.628 79.733 75.628 79.7367 75.6268 79.7398C75.6169 79.7904 75.6108 79.8416 75.6071 79.8927C75.6071 79.899 75.6053 79.904 75.6053 79.9102L74.9783 89.8147L74.9777 89.8141C74.8464 91.8866 75.5623 93.9221 76.9574 95.4378C78.3519 96.9542 80.3004 97.8167 82.3421 97.821C83.1225 97.8203 83.898 97.6943 84.6397 97.4478L87.6263 103.089V105.816H80.755V102.529C80.7532 101.968 80.4231 101.463 79.9158 101.243C72.0844 97.8408 67.0406 90.2039 67.0701 81.7854C67.0898 76.4063 69.2168 71.2451 73.0647 67.2513L73.0648 67.2514ZM92.6892 83.1279C92.3818 82.1126 92.4198 81.0211 92.7971 80.0308C93.1744 79.0398 93.8683 78.2074 94.7678 77.667L99.1022 75.086L93.9592 85.1797C93.3684 84.6193 92.9304 83.9123 92.6893 83.1279H92.6892ZM101.456 76.5438L101.765 81.4424C101.854 82.8689 101.303 84.2592 100.266 85.2246C99.2291 86.1894 97.8186 86.6243 96.4296 86.4071L101.456 76.5438ZM86.7982 91.6883C86.5823 92.3928 86.2068 93.0362 85.7031 93.5672L80.5012 83.7201L84.7099 86.2267C85.6111 86.7659 86.3075 87.5977 86.686 88.5886C87.0651 89.5796 87.1044 90.6716 86.7983 91.6881L86.7982 91.6883ZM77.7214 90.0003L78.0404 84.9663L83.3006 94.9239L83.3 94.9245C82.5368 95.0892 81.7447 95.053 80.9994 94.8196L80.9926 94.8178V94.8171C79.9896 94.5139 79.1183 93.8705 78.5232 92.9944C77.9281 92.1183 77.6453 91.0624 77.7207 90.0003L77.7214 90.0003Z" fill="black"/>
<path d="M88.9997 54.4147C89.3642 54.4147 89.7139 54.2674 89.9715 54.0053C90.2292 53.7432 90.374 53.3875 90.374 53.0168V42.3509C90.374 41.579 89.7587 40.9531 88.9997 40.9531C88.2408 40.9531 87.6255 41.579 87.6255 42.3509V53.0168C87.6255 53.3875 87.7703 53.7432 88.0279 54.0053C88.2856 54.2674 88.6353 54.4147 88.9997 54.4147Z" fill="black"/>
<path d="M59.14 80.8311H48.2263C47.4674 80.8311 46.8521 81.457 46.8521 82.2289C46.8521 83.0008 47.4674 83.6267 48.2263 83.6267H59.14C59.8989 83.6267 60.5142 83.0008 60.5142 82.2289C60.5142 81.457 59.8989 80.8311 59.14 80.8311Z" fill="black"/>
<path d="M129.774 80.8311H118.86C118.101 80.8311 117.486 81.457 117.486 82.2289C117.486 83.0008 118.101 83.6267 118.86 83.6267H129.774C130.533 83.6267 131.148 83.0008 131.148 82.2289C131.148 81.457 130.533 80.8311 129.774 80.8311Z" fill="black"/>
<path d="M67.0115 62.5635C67.5618 63.0951 68.4318 63.0727 68.9545 62.5129C69.4772 61.9532 69.4551 61.0683 68.9048 60.5366L61.1347 53.0277C60.5844 52.4961 59.7144 52.5191 59.1917 53.0789C58.669 53.638 58.6911 54.5229 59.2414 55.0545L67.0115 62.5635Z" fill="black"/>
<path d="M110.041 62.9469C110.393 62.9475 110.732 62.8096 110.987 62.5625L118.758 55.0536H118.758C119.308 54.522 119.33 53.6371 118.807 53.0773C118.285 52.5176 117.415 52.4951 116.864 53.0268L109.094 60.5357H109.094C108.686 60.9295 108.555 61.5366 108.764 62.0677C108.973 62.5987 109.479 62.9469 110.041 62.9469V62.9469Z" fill="black"/>
</svg>
