<svg width="114" height="28" viewBox="0 0 114 28" fill="none" xmlns="http://www.w3.org/2000/svg">
<g clip-path="url(#clip0_191_48)">
<path d="M19.4685 13.6931H2.29038V27.6135H0V0.394043H2.29038V11.4728H19.4685V0.394043H21.7515V27.6135H19.4685V13.6931Z" fill="white"/>
<path d="M46.232 0.386475H44.7076L33.1812 27.6135H35.4716L45.4661 4.04656L55.468 27.6135H57.7584L46.232 0.386475Z" fill="white"/>
<path d="M69.7236 25.3932H82.3135V27.6135H67.4407V0.394043H69.7236V25.3932Z" fill="white"/>
<path d="M100.719 0C108.282 0 114 6.06224 114 14.0038C114 21.9453 108.282 28 100.719 28C93.1561 28 87.4448 21.9377 87.4448 14.0038C87.4448 6.06982 93.1635 0 100.719 0ZM100.719 25.7645C107.174 25.7645 111.71 20.4601 111.71 13.9811C111.71 7.50203 107.174 2.19756 100.719 2.19756C94.2641 2.19756 89.7279 7.50203 89.7279 13.9811C89.7279 20.4601 94.2641 25.7873 100.719 25.7873V25.7645Z" fill="white"/>
<path d="M51.4598 12.8141L52.4489 15.1632C55.7581 15.6861 57.5057 16.3908 58.0783 16.8C57.0892 17.626 52.4192 18.8763 45.0794 18.8763C37.7397 18.8763 33.0994 17.6336 32.0881 16.8076C32.8317 16.2696 35.1667 15.4587 38.4908 14.9434L39.4798 12.6019C36.8399 12.9277 29.8125 14.0493 29.8125 16.7545C29.8125 20.9451 43.5253 21.0663 45.0943 21.0663C46.6634 21.0663 60.3687 20.9451 60.3687 16.7545C60.3539 14.8904 57.3569 13.5643 51.4598 12.8141Z" fill="#00CC81"/>
</g>
<defs>
<clipPath id="clip0_191_48">
<rect width="114" height="28" fill="white"/>
</clipPath>
</defs>
</svg>
