<svg width="131" height="32" viewBox="0 0 131 32" fill="none" xmlns="http://www.w3.org/2000/svg">
<g clip-path="url(#clip0_101_6)">
<path d="M22.3717 15.6493H2.63193V31.5583H0V0.450348H2.63193V13.1118H22.3717V0.450348H24.9951V31.5583H22.3717V15.6493Z" fill="white"/>
<path d="M53.1265 0.441681H51.3747L38.1294 31.5583H40.7614L52.2463 4.62463L63.7398 31.5583H66.3717L53.1265 0.441681Z" fill="white"/>
<path d="M80.1212 29.0209H94.5885V31.5583H77.4978V0.450348H80.1212V29.0209Z" fill="white"/>
<path d="M115.738 0C124.429 0 131 6.92828 131 16.0043C131 25.0804 124.429 32 115.738 32C107.048 32 100.485 25.0717 100.485 16.0043C100.485 6.93694 107.056 0 115.738 0ZM115.738 29.4452C123.155 29.4452 128.368 23.3829 128.368 15.9783C128.368 8.57375 123.155 2.5115 115.738 2.5115C108.321 2.5115 103.108 8.57375 103.108 15.9783C103.108 23.3829 108.321 29.4712 115.738 29.4712V29.4452Z" fill="white"/>
<path d="M59.1338 14.6446L60.2704 17.3294C64.073 17.9269 66.0811 18.7323 66.7391 19.2C65.6026 20.144 60.2362 21.5729 51.8019 21.5729C43.3677 21.5729 38.0354 20.1526 36.8732 19.2087C37.7278 18.5938 40.411 17.6671 44.2307 17.0782L45.3672 14.4022C42.3336 14.7746 34.2583 16.0563 34.2583 19.148C34.2583 23.9372 50.0159 24.0758 51.819 24.0758C53.6221 24.0758 69.3712 23.9372 69.3712 19.148C69.3541 17.0176 65.9102 15.502 59.1338 14.6446Z" fill="#00CC81"/>
</g>
<defs>
<clipPath id="clip0_101_6">
<rect width="131" height="32" fill="white"/>
</clipPath>
</defs>
</svg>
