<svg width="150" height="150" viewBox="0 0 150 150" fill="none" xmlns="http://www.w3.org/2000/svg">
<circle cx="75" cy="75" r="75" fill="#00CC81"/>
<g clip-path="url(#clip0_253_13)">
<path d="M101.782 79.8296C104.102 76.1602 105.512 71.986 105.892 67.6571V67.6095C105.892 67.4736 105.892 67.3241 105.892 67.1815L105.926 66.5702C105.926 66.217 105.926 65.8909 105.96 65.5241C105.96 65.4426 105.96 65.3475 105.96 65.266C105.966 60.6772 104.819 56.1608 102.623 52.1351C100.427 48.1095 97.2541 44.7047 93.3979 42.2361C89.5418 39.7675 85.1269 38.3149 80.5623 38.0127C75.9977 37.7105 71.4309 38.5685 67.2848 40.5074C63.1386 42.4463 59.5473 45.4034 56.8432 49.1046C54.139 52.8059 52.4095 57.1317 51.8149 61.6816C51.2204 66.2315 51.7799 70.8584 53.4417 75.1337C55.1035 79.4091 57.8139 83.1948 61.3219 86.1401C59.0307 86.9413 56.948 88.2481 55.2275 89.9643L51.9907 93.2113L49.5732 90.7862C49.4681 90.68 49.3431 90.5958 49.2054 90.5383C49.0676 90.4808 48.9199 90.4512 48.7707 90.4512C48.6216 90.4512 48.4738 90.4808 48.3361 90.5383C48.1984 90.5958 48.0734 90.68 47.9683 90.7862L44.2711 94.502C44.1354 94.641 44.0384 94.8132 43.9897 95.0015C43.941 95.1898 43.9423 95.3875 43.9935 95.5751C43.9772 95.7269 43.9956 95.8804 44.0472 96.024C44.0988 96.1676 44.1823 96.2974 44.2914 96.4038L59.5205 111.674C59.7314 111.883 60.0163 112 60.3129 112C60.3775 111.994 60.4411 111.981 60.5024 111.959C60.6589 111.969 60.8158 111.945 60.9628 111.89C61.1097 111.835 61.2434 111.75 61.3556 111.64L65.053 107.924C65.1605 107.82 65.2459 107.695 65.3043 107.556C65.3626 107.418 65.3927 107.27 65.3927 107.119C65.3927 106.969 65.3626 106.821 65.3043 106.682C65.2459 106.544 65.1605 106.419 65.053 106.314L62.6355 103.889L63.9559 102.531C64.1656 102.317 64.4153 102.147 64.6907 102.031C64.9662 101.914 65.2619 101.853 65.5608 101.852H80.1736C81.8086 101.854 83.428 101.532 84.9387 100.905C86.4494 100.278 87.8215 99.3579 88.9766 98.1972L101.165 85.9295C101.952 85.1347 102.439 84.0903 102.543 82.9751C102.647 81.8598 102.361 80.7431 101.734 79.816L101.782 79.8296ZM103.684 65.266V65.3407H91.9697C91.5492 65.3588 91.1368 65.2204 90.8118 64.9521C90.4869 64.6838 90.2722 64.3045 90.2091 63.8871C90.1955 63.7993 90.1955 63.7099 90.2091 63.6221C90.2359 63.1956 90.174 62.7682 90.0271 62.367C89.8802 61.9659 89.6516 61.5999 89.3559 61.2922C89.0396 60.952 88.657 60.6807 88.2318 60.4949C87.8067 60.3091 87.3481 60.2127 86.8843 60.2121H84.7173C84.3029 60.2301 83.8967 60.0938 83.5766 59.8292C83.2565 59.5646 83.0454 59.1904 82.9839 58.7789C82.9582 58.5556 82.9798 58.3293 83.0472 58.1149C83.1147 57.9005 83.2266 57.7027 83.3756 57.5347C83.5245 57.3666 83.7071 57.2321 83.9115 57.1398C84.1159 57.0475 84.3374 56.9996 84.5616 56.9992H92.6874C93.1155 57.0024 93.5401 56.9193 93.9356 56.7547C94.3311 56.5902 94.6896 56.3477 94.9898 56.0415C95.3171 55.7038 95.5737 55.304 95.7447 54.8653C95.9156 54.4267 95.9974 53.9582 95.9852 53.4874C95.9916 53.0594 96.1669 52.6515 96.4727 52.353C96.6154 52.2026 96.788 52.0837 96.9793 52.0041C97.1705 51.9246 97.3762 51.886 97.5832 51.891H99.7975C102.337 55.8871 103.688 60.527 103.691 65.266H103.684ZM62.7573 46.2464H73.8288C74.0382 46.2432 74.2458 46.2832 74.4392 46.3638C74.6325 46.4444 74.8074 46.5639 74.9528 46.7151C75.1726 46.9386 75.3218 47.2223 75.3817 47.5305C75.4416 47.8387 75.4096 48.1577 75.2896 48.4477C75.1696 48.7377 74.967 48.9859 74.7072 49.161C74.4473 49.3361 74.1418 49.4304 73.8288 49.4321H59.6086C60.5731 48.2779 61.6332 47.2076 62.7777 46.2328L62.7573 46.2464ZM62.1208 77.1601C62.7691 77.8167 63.6508 78.1881 64.572 78.1926H65.5066C65.9224 78.1733 66.3304 78.3101 66.6509 78.5764C66.9715 78.8427 67.1816 79.2192 67.2402 79.6326C67.2663 79.8538 67.2446 80.078 67.1768 80.2901C67.1091 80.5023 66.9967 80.6973 66.8474 80.8621C66.6972 81.028 66.5144 81.1606 66.3104 81.2518C66.1064 81.343 65.8857 81.3908 65.6623 81.392H59.8794C56.0444 76.9028 53.9378 71.1849 53.9408 65.2728C53.9408 64.4781 53.9746 63.6765 54.0559 62.8614H65.8994C66.3056 62.8425 66.7052 62.9686 67.0275 63.2173C67.3499 63.466 67.5739 63.8213 67.6599 64.2199V64.3625C67.6964 65.328 68.1024 66.2423 68.7935 66.9153C69.4846 67.5883 70.4076 67.9683 71.3707 67.9763H76.0499C76.3619 67.9803 76.6659 68.0753 76.9248 68.25C77.1837 68.4246 77.3863 68.6711 77.5077 68.9594C77.6291 69.2477 77.664 69.5654 77.6084 69.8734C77.5527 70.1813 77.4088 70.4662 77.1942 70.6934C76.8883 70.9942 76.4783 71.1645 76.0499 71.1689H64.5383C64.0802 71.1706 63.6269 71.2635 63.2047 71.442C62.7825 71.6206 62.3997 71.8812 62.0785 72.209C61.7574 72.5368 61.5043 72.9254 61.3338 73.352C61.1632 73.7785 61.0785 74.2347 61.0848 74.6943C61.0839 75.6161 61.4438 76.5016 62.087 77.1601H62.1208ZM62.1208 83.715H65.6623C66.2088 83.7149 66.7491 83.5999 67.2486 83.3775C67.748 83.1552 68.1956 82.8305 68.5624 82.4241C68.9292 82.0178 69.2069 81.5391 69.3781 81.0185C69.5492 80.4979 69.6098 79.947 69.556 79.4016C69.4338 78.4137 68.9507 77.5065 68.2002 76.8553C67.4497 76.2041 66.4851 75.8552 65.493 75.8762H64.5585C64.4059 75.8776 64.2549 75.847 64.1149 75.7861C63.975 75.7253 63.8492 75.6356 63.7459 75.523C63.6333 75.405 63.5458 75.2653 63.4887 75.1123C63.4317 74.9594 63.4063 74.7964 63.4141 74.6332C63.4145 74.3285 63.5336 74.0359 63.7459 73.818C63.9618 73.6012 64.2531 73.477 64.5585 73.4715H76.0701C77.1113 73.4667 78.1097 73.0549 78.8532 72.3236C79.3968 71.7738 79.7661 71.0751 79.9148 70.3153C80.0634 69.5555 79.9849 68.7684 79.6889 68.0533C79.3929 67.3382 78.8926 66.7269 78.2511 66.2962C77.6097 65.8655 76.8555 65.6348 76.0836 65.6329H71.3978C71.0378 65.6232 70.6945 65.478 70.4361 65.2264C70.1777 64.9748 70.0231 64.635 70.0028 64.2743V64.1045C69.8754 63.1166 69.3918 62.2096 68.6432 61.5551C67.8946 60.9005 66.9329 60.5435 65.9399 60.5518H54.4283C55.0317 57.4263 56.2295 54.4467 57.9563 51.7756H73.8559C74.8916 51.7738 75.8843 51.3603 76.6166 50.6257C77.349 49.891 77.7612 48.8951 77.763 47.8562C77.763 47.3409 77.6618 46.8307 77.465 46.3547C77.2683 45.8787 76.9798 45.4464 76.6163 45.0824C76.2528 44.7183 75.8211 44.4299 75.3463 44.2333C74.8715 44.0367 74.3628 43.9359 73.8492 43.9368H66.0077C71.1398 40.8098 77.2301 39.6611 83.144 40.7046C89.0578 41.7481 94.3917 44.9127 98.1521 49.6088H97.59C97.0752 49.6056 96.5651 49.7068 96.0903 49.9064C95.6156 50.106 95.186 50.3999 94.8273 50.7703C94.4596 51.1391 94.1689 51.5778 93.9724 52.0607C93.7759 52.5436 93.6774 53.061 93.6828 53.5826C93.6905 53.9077 93.5743 54.2234 93.3578 54.4655C93.2707 54.5562 93.1652 54.6269 93.0483 54.6726C92.9314 54.7184 92.8059 54.7382 92.6806 54.7305H84.5548C84.0089 54.7316 83.4694 54.8472 82.9707 55.07C82.472 55.2927 82.0254 55.6177 81.6594 56.0239C81.2933 56.4301 81.0161 56.9086 80.8453 57.4287C80.6746 57.9488 80.6141 58.4989 80.668 59.0438C80.7901 60.0316 81.2732 60.939 82.0237 61.5902C82.7743 62.2415 83.7388 62.5904 84.7309 62.5693H86.8911C87.0393 62.57 87.1857 62.6017 87.3209 62.6625C87.4562 62.7234 87.5774 62.812 87.6765 62.9226C87.7511 62.9945 87.81 63.0811 87.8496 63.177C87.8892 63.2728 87.9087 63.3757 87.9068 63.4795C87.8864 63.6941 87.8864 63.9101 87.9068 64.1247C88.0297 65.1164 88.5113 66.0282 89.2603 66.6869C90.0094 67.3457 90.9736 67.7053 91.9697 67.6977H103.562C103.2 71.4487 101.986 75.0666 100.014 78.274C99.0632 77.8198 97.9948 77.6739 96.9573 77.8565C95.9198 78.0391 94.9646 78.5411 94.2245 79.293L87.1958 86.3439C86.4194 85.6176 85.3929 85.2208 84.3315 85.2366H66.7255C65.8952 85.2418 65.0664 85.3122 64.247 85.4472C63.5202 84.9038 62.8229 84.3332 62.1547 83.7354L62.1208 83.715ZM62.6762 107.123L60.4347 109.371L46.5531 95.4461L48.7945 93.1977L62.6762 107.123ZM99.6079 84.3603L87.3786 96.628C86.4382 97.5765 85.3195 98.3284 84.0874 98.8403C82.8554 99.3522 81.5343 99.6138 80.2008 99.61H65.5878C64.9898 99.612 64.3981 99.7331 63.8471 99.9663C63.2961 100.2 62.7968 100.54 62.3781 100.968L61.0238 102.327L53.5751 94.855L56.8119 91.6083C58.0992 90.3103 59.6306 89.2817 61.3172 88.582C63.0039 87.8824 64.8122 87.5257 66.6374 87.5326H84.284C84.6668 87.5365 85.0398 87.6535 85.3564 87.8693C85.6731 88.085 85.9192 88.3897 86.0638 88.7452C86.2085 89.1007 86.2454 89.4912 86.1696 89.8676C86.0939 90.244 85.9091 90.5896 85.6383 90.861C85.2788 91.221 84.792 91.4237 84.284 91.4248H76.8353C76.5318 91.4248 76.2407 91.5457 76.0261 91.761C75.8115 91.9763 75.691 92.2683 75.691 92.5728C75.691 92.8772 75.8115 93.1693 76.0261 93.3846C76.2407 93.5998 76.5318 93.7207 76.8353 93.7207H84.284C84.8384 93.7219 85.3876 93.6133 85.9 93.4011C86.4125 93.189 86.878 92.8775 87.2702 92.4844C87.8015 91.9597 88.1824 91.3016 88.373 90.5786C88.5636 89.8556 88.557 89.0944 88.3537 88.3749L95.9242 80.7805C96.4058 80.3035 97.0553 80.0361 97.7321 80.0361C98.409 80.0361 99.0587 80.3035 99.5403 80.7805C99.7796 81.0169 99.9696 81.2988 100.099 81.6095C100.229 81.9203 100.296 82.2539 100.296 82.5908C100.296 82.9277 100.229 83.2613 100.099 83.5721C99.9696 83.8829 99.7796 84.1647 99.5403 84.4011L99.6079 84.3603Z" fill="black"/>
</g>
<defs>
<clipPath id="clip0_253_13">
<rect width="62" height="74" fill="white" transform="translate(44 38)"/>
</clipPath>
</defs>
</svg>
