<svg width="150" height="150" viewBox="0 0 150 150" fill="none" xmlns="http://www.w3.org/2000/svg">
<circle cx="75" cy="75" r="75" fill="#CCCCCC"/>
<g clip-path="url(#clip0_253_10)">
<path fill-rule="evenodd" clip-rule="evenodd" d="M95.5132 80.0324C91.7017 80.0264 88.0431 81.531 85.3383 84.2166L85.2718 84.2774L85.2163 84.3385C82.5356 87.0476 81.032 90.7049 81.032 94.5162C81.032 98.3274 82.5356 101.985 85.2163 104.694L85.2718 104.76L85.3383 104.816C88.0465 107.496 91.7029 109 95.5132 109C99.3236 109 102.98 107.496 105.688 104.816C105.712 104.799 105.734 104.78 105.755 104.76L105.816 104.694C108.492 101.983 109.993 98.3261 109.993 94.5162C109.993 90.7063 108.492 87.0497 105.816 84.3385L105.755 84.2774C105.735 84.2543 105.713 84.2339 105.688 84.2166C102.984 81.531 99.3248 80.0264 95.5132 80.0324ZM96.7213 82.5096V83.6568C96.7213 83.9772 96.5941 84.2845 96.3675 84.5111C96.1409 84.7377 95.8336 84.8649 95.5132 84.8649C95.1928 84.8649 94.8855 84.7377 94.6589 84.5111C94.4324 84.2845 94.3051 83.9772 94.3051 83.6568V82.5096C91.9455 82.7419 89.708 83.6697 87.8764 85.1753L88.6855 85.9844C88.8957 86.2139 89.0093 86.5156 89.0024 86.8268C88.9956 87.1379 88.8689 87.4345 88.6489 87.6545C88.4288 87.8746 88.1322 88.0012 87.8211 88.0081C87.51 88.0149 87.2082 87.9015 86.9787 87.6913L86.1696 86.8821C84.6666 88.7153 83.7391 90.952 83.5039 93.3108H84.6511C84.8163 93.2996 84.982 93.3224 85.1379 93.3779C85.2939 93.4334 85.4367 93.5205 85.5577 93.6335C85.6786 93.7465 85.7752 93.8832 85.8411 94.0351C85.907 94.1869 85.941 94.3506 85.941 94.5162C85.941 94.6817 85.907 94.8455 85.8411 94.9973C85.7752 95.1492 85.6786 95.2859 85.5577 95.3989C85.4367 95.5119 85.2939 95.5988 85.1379 95.6543C84.982 95.7098 84.8163 95.7328 84.6511 95.7216H83.4817C83.717 98.0804 84.6444 100.317 86.1474 102.15L86.9565 101.341C87.1861 101.131 87.4878 101.017 87.7989 101.024C88.1101 101.031 88.4066 101.158 88.6267 101.378C88.8467 101.598 88.9734 101.894 88.9802 102.205C88.9871 102.517 88.8736 102.818 88.6635 103.048L87.8542 103.857C89.6871 105.361 91.9239 106.288 94.2829 106.523V105.376C94.2829 105.055 94.4102 104.748 94.6367 104.521C94.8633 104.295 95.1706 104.167 95.491 104.167C95.8114 104.167 96.1188 104.295 96.3453 104.521C96.5719 104.748 96.6993 105.055 96.6993 105.376V106.523C99.0592 106.292 101.297 105.364 103.128 103.857L102.319 103.048C102.109 102.818 101.995 102.517 102.002 102.205C102.009 101.894 102.135 101.598 102.356 101.378C102.576 101.158 102.872 101.031 103.183 101.024C103.494 101.017 103.796 101.131 104.026 101.341L104.835 102.15C106.338 100.317 107.265 98.0804 107.5 95.7216H106.353C106.188 95.7328 106.022 95.7098 105.866 95.6543C105.71 95.5988 105.568 95.5119 105.447 95.3989C105.326 95.2859 105.229 95.1492 105.163 94.9973C105.097 94.8455 105.063 94.6817 105.063 94.5162C105.063 94.3506 105.097 94.1869 105.163 94.0351C105.229 93.8832 105.326 93.7465 105.447 93.6335C105.568 93.5205 105.71 93.4334 105.866 93.3779C106.022 93.3224 106.188 93.2996 106.353 93.3108H107.5C107.265 90.952 106.338 88.7153 104.835 86.8821L104.026 87.6913C103.796 87.9015 103.494 88.0149 103.183 88.0081C102.872 88.0012 102.576 87.8746 102.356 87.6545C102.135 87.4345 102.009 87.1379 102.002 86.8268C101.995 86.5156 102.109 86.2139 102.319 85.9844L103.128 85.1753C101.302 83.6749 99.0728 82.7475 96.7213 82.5096ZM64.9773 98.027L63.2815 99.7228C63.0713 99.9524 62.9577 100.254 62.9646 100.565C62.9714 100.876 63.0981 101.173 63.3181 101.393C63.5382 101.613 63.8348 101.74 64.1459 101.747C64.457 101.753 64.7587 101.64 64.9883 101.43L68.6072 97.8109C68.8332 97.5844 68.9603 97.2774 68.9603 96.9574C68.9603 96.6374 68.8332 96.3304 68.6072 96.1039L64.9883 92.4851C64.7587 92.2749 64.457 92.1615 64.1459 92.1683C63.8348 92.1752 63.5382 92.3018 63.3181 92.5219C63.0981 92.7419 62.9714 93.0384 62.9646 93.3495C62.9577 93.6606 63.0713 93.9625 63.2815 94.192L64.6558 95.5608C58.5185 94.8013 52.8701 91.8254 48.7733 87.1928C44.6765 82.5602 42.4137 76.5902 42.4105 70.406C42.4217 70.2408 42.3989 70.0751 42.3434 69.9192C42.2879 69.7632 42.201 69.6203 42.0879 69.4993C41.9749 69.3784 41.8382 69.282 41.6864 69.216C41.5345 69.1501 41.3708 69.1162 41.2052 69.1162C41.0397 69.1162 40.8758 69.1501 40.724 69.216C40.5721 69.282 40.4354 69.3784 40.3224 69.4993C40.2094 69.6203 40.1225 69.7632 40.067 69.9192C40.0115 70.0751 39.9886 70.2408 39.9998 70.406C40.0033 77.2858 42.5598 83.9195 47.1742 89.0223C51.7886 94.1251 58.1326 97.3338 64.9773 98.027ZM94.3051 88.5115V94.5411C94.3051 94.8615 94.4324 95.1688 94.6589 95.3954C94.8855 95.6219 95.1928 95.7492 95.5132 95.7492H100.34C100.505 95.7604 100.671 95.7376 100.827 95.6821C100.983 95.6266 101.126 95.5397 101.247 95.4266C101.368 95.3136 101.464 95.1769 101.53 95.0251C101.596 94.8732 101.63 94.7095 101.63 94.5439C101.63 94.3784 101.596 94.2145 101.53 94.0627C101.464 93.9108 101.368 93.7743 101.247 93.6612C101.126 93.5482 100.983 93.4611 100.827 93.4056C100.671 93.3501 100.505 93.3273 100.34 93.3385H96.7213V88.4727C96.7213 88.1523 96.5941 87.845 96.3675 87.6184C96.1409 87.3918 95.8336 87.2646 95.5132 87.2646C95.1928 87.2646 94.8855 87.3918 94.6589 87.6184C94.4324 87.845 94.3051 88.1523 94.3051 88.4727V88.5115ZM67.7538 51.098C63.9353 51.0991 60.2027 52.2325 57.0283 54.3547C53.8538 56.477 51.38 59.4928 49.9194 63.021C48.4589 66.5492 48.0773 70.4313 48.8229 74.1763C49.5686 77.9213 51.408 81.3611 54.1085 84.0608C56.809 86.7605 60.2492 88.5989 63.9945 89.3435C67.7397 90.0881 71.6217 89.7053 75.1495 88.2438C78.6773 86.7822 81.6924 84.3076 83.8138 81.1325C85.9351 77.9574 87.0673 74.2245 87.0673 70.406C87.0703 67.8678 86.5728 65.3541 85.6035 63.0083C84.6342 60.6625 83.2121 58.5307 81.4184 56.7349C79.6247 54.9392 77.4946 53.5145 75.1499 52.5425C72.8052 51.5705 70.292 51.0703 67.7538 51.0703V51.098ZM67.7538 53.5087C71.0958 53.5087 74.3627 54.4998 77.1414 56.3565C79.9202 58.2132 82.0859 60.8521 83.3648 63.9397C84.6437 67.0273 84.9784 70.4248 84.3264 73.7026C83.6744 76.9804 82.0651 79.9911 79.702 82.3543C77.3388 84.7174 74.3281 86.3267 71.0503 86.9787C67.7725 87.6307 64.375 87.2961 61.2874 86.0171C58.1998 84.7382 55.5609 82.5725 53.7042 79.7937C51.8475 77.015 50.8564 73.748 50.8564 70.406C50.8535 68.1849 51.2884 65.9851 52.1362 63.9321C52.984 61.8792 54.2282 60.0135 55.7974 58.4416C57.3667 56.8698 59.2303 55.6226 61.2818 54.7715C63.3334 53.9203 65.5327 53.4818 67.7538 53.4811V53.5087ZM66.5456 60.8906C65.2228 61.2404 64.0442 61.9987 63.1775 63.0574C62.3109 64.1161 61.8003 65.4214 61.7186 66.7872C61.7003 67.5152 61.889 68.2334 62.2628 68.8583C62.6366 69.4832 63.1801 69.9892 63.8301 70.3174C64.9795 70.8946 66.2 71.3176 67.4601 71.5754C68.5016 71.7741 69.5118 72.1115 70.4638 72.5785C70.7378 72.7079 70.9693 72.9127 71.1312 73.1688C71.2931 73.425 71.3787 73.7219 71.3781 74.0249C71.3133 74.9347 70.9193 75.7898 70.2697 76.4301C69.9532 76.7955 69.5651 77.0921 69.1296 77.3017C68.694 77.5114 68.2202 77.6297 67.7372 77.6493C66.7769 77.6479 65.8563 77.2654 65.1778 76.5859C64.4993 75.9063 64.1183 74.9852 64.1183 74.0249C64.1183 73.7045 63.9909 73.3972 63.7643 73.1706C63.5378 72.944 63.2305 72.8168 62.9101 72.8168C62.5896 72.8168 62.2825 72.944 62.0559 73.1706C61.8293 73.3972 61.702 73.7045 61.702 74.0249C61.7029 75.4155 62.1837 76.7633 63.0631 77.8406C63.9425 78.9179 65.1667 79.6588 66.5289 79.9382V81.2682C66.5289 81.5886 66.6563 81.8959 66.8829 82.1225C67.1095 82.3491 67.4168 82.4763 67.7372 82.4763C68.0576 82.4763 68.3649 82.3491 68.5915 82.1225C68.818 81.8959 68.9453 81.5886 68.9453 81.2682V79.9216C70.2681 79.5717 71.4466 78.8135 72.3133 77.7547C73.18 76.696 73.6906 75.3907 73.7723 74.0249C73.7918 73.2974 73.6042 72.5794 73.2313 71.9544C72.8585 71.3294 72.3158 70.8232 71.6663 70.4948C70.5164 69.9142 69.2937 69.4911 68.0309 69.2367C66.99 69.0355 65.98 68.6982 65.0271 68.2336C64.7541 68.1034 64.5238 67.8983 64.3629 67.6422C64.202 67.3861 64.1172 67.0897 64.1183 66.7872C64.1821 65.8772 64.5763 65.0218 65.2267 64.382C65.5418 64.0163 65.9287 63.7193 66.3635 63.5096C66.7982 63.2998 67.2715 63.1818 67.7538 63.1628C68.2298 63.1628 68.7011 63.2565 69.1408 63.4387C69.5805 63.6208 69.98 63.8878 70.3166 64.2244C70.6531 64.5609 70.9201 64.9604 71.1022 65.4001C71.2844 65.8399 71.3781 66.3113 71.3781 66.7872C71.3989 67.0928 71.535 67.379 71.7587 67.5881C71.9825 67.7972 72.2773 67.9135 72.5835 67.9135C72.8898 67.9135 73.1847 67.7972 73.4085 67.5881C73.6322 67.379 73.7682 67.0928 73.7889 66.7872C73.789 65.3963 73.3086 64.048 72.429 62.9705C71.5494 61.893 70.3247 61.1524 68.9619 60.8739V59.5439C68.9619 59.2235 68.8345 58.9162 68.608 58.6896C68.3814 58.4631 68.0742 58.3358 67.7538 58.3358C67.4334 58.3358 67.1261 58.4631 66.8995 58.6896C66.673 58.9162 66.5456 59.2235 66.5456 59.5439V60.8906ZM70.8572 45.2513C76.9936 46.012 82.6406 48.9885 86.7363 53.621C90.8319 58.2535 93.094 64.2226 93.097 70.406C93.097 70.7264 93.2243 71.0337 93.4508 71.2603C93.6774 71.4869 93.9847 71.6142 94.3051 71.6142C94.6255 71.6142 94.9328 71.4869 95.1594 71.2603C95.386 71.0337 95.5132 70.7264 95.5132 70.406C95.5097 63.5254 92.9524 56.891 88.3369 51.7881C83.7213 46.6852 77.3759 43.4771 70.5302 42.7852L72.2316 41.0893C72.4418 40.8598 72.5553 40.5579 72.5485 40.2468C72.5416 39.9356 72.415 39.6392 72.1949 39.4191C71.9749 39.1991 71.6783 39.0724 71.3672 39.0656C71.056 39.0588 70.7543 39.1722 70.5248 39.3823L66.9003 43.0012C66.6743 43.2277 66.5472 43.5347 66.5472 43.8547C66.5472 44.1747 66.6743 44.4817 66.9003 44.7082L70.5248 48.3271C70.635 48.4474 70.7683 48.5441 70.9169 48.6115C71.0655 48.6788 71.2261 48.7155 71.3892 48.719C71.5523 48.7226 71.7144 48.6931 71.8658 48.6323C72.0171 48.5715 72.1547 48.4809 72.27 48.3655C72.3854 48.2501 72.4762 48.1126 72.537 47.9612C72.5977 47.8098 72.6272 47.6476 72.6236 47.4846C72.62 47.3215 72.5834 47.1608 72.516 47.0122C72.4486 46.8637 72.3519 46.7303 72.2316 46.6201L70.8572 45.2513Z" fill="black"/>
</g>
<defs>
<clipPath id="clip0_253_10">
<rect width="70" height="70" fill="white" transform="translate(40 39)"/>
</clipPath>
</defs>
</svg>
