<svg width="150" height="150" viewBox="0 0 150 150" fill="none" xmlns="http://www.w3.org/2000/svg">
<circle cx="75" cy="75" r="75" fill="#F6F6F6"/>
<g clip-path="url(#clip0_253_9)">
<path d="M77.1004 47.37C84.4844 47.8538 91.4852 50.8349 96.9552 55.8245C104.034 62.4524 106.312 69.7639 107 79.3613C100.839 75.9325 96.9551 75.0192 90.3351 78.448C85.7688 75.9325 81.6613 75.7028 77.095 77.7644V100.388C77.095 108.154 64.7724 110.439 64.7724 99.6991C64.7724 99.5041 64.8108 99.3111 64.8853 99.1309C64.9598 98.9508 65.069 98.787 65.2067 98.6492C65.3444 98.5113 65.5079 98.402 65.6878 98.3274C65.8677 98.2527 66.0606 98.2143 66.2554 98.2143C66.4501 98.2143 66.6429 98.2527 66.8228 98.3274C67.0027 98.402 67.1663 98.5113 67.304 98.6492C67.4417 98.787 67.5509 98.9508 67.6254 99.1309C67.7 99.3111 67.7384 99.5041 67.7384 99.6991C67.7384 105.873 73.6703 104.73 73.8997 100.612V77.7644C69.3334 75.7028 65.2258 75.9325 60.6595 78.448C54.0448 75.0192 49.9319 76.1621 44 79.3613C44.6828 69.7479 46.9659 62.4524 54.0394 55.8245C59.4553 50.7479 66.4905 47.7531 73.8997 47.37V45.5381C73.8997 43.4819 77.1004 43.4819 77.1004 45.5381V47.37ZM94.672 58.1104C89.4622 53.2621 82.6129 50.5673 75.5 50.5673C68.3872 50.5673 61.5377 53.2621 56.3279 58.1104C51.6815 62.2819 48.6173 67.9326 47.654 74.106C51.943 72.6924 56.6149 73.0203 60.6649 75.0193C62.9752 73.8911 65.5119 73.3048 68.0824 73.3048C70.6529 73.3048 73.1897 73.8911 75.5 75.0193C77.8104 73.8911 80.347 73.3048 82.9175 73.3048C85.488 73.3048 88.0247 73.8911 90.3351 75.0193C94.3851 73.0203 99.0569 72.6924 103.346 74.106C102.383 67.9326 99.3184 62.2819 94.672 58.1104V58.1104Z" fill="black"/>
</g>
<defs>
<clipPath id="clip0_253_9">
<rect width="63" height="63" fill="white" transform="translate(44 44)"/>
</clipPath>
</defs>
</svg>
