<svg width="150" height="150" viewBox="0 0 150 150" fill="none" xmlns="http://www.w3.org/2000/svg">
<circle cx="75" cy="75" r="75" fill="#8EEDD2"/>
<g clip-path="url(#clip0_253_12)">
<path d="M93.5425 58.1173L101.91 49.7504C103.122 50.5557 104.589 50.8822 106.029 50.6665C107.468 50.4508 108.776 49.7084 109.698 48.5831C110.621 47.4579 111.093 46.03 111.023 44.5764C110.953 43.1229 110.345 41.7473 109.318 40.7163C108.291 39.6854 106.917 39.0726 105.464 38.9969C104.011 38.9211 102.581 39.3877 101.453 40.3063C100.324 41.2248 99.5766 42.5297 99.3555 43.9681C99.1344 45.4064 99.4553 46.8755 100.256 48.0906L91.8892 56.4577L93.5425 58.1173ZM102.652 42.3817C103.314 41.7198 104.212 41.3479 105.148 41.3479C106.084 41.3479 106.982 41.7198 107.643 42.3817C108.305 43.0436 108.677 43.9414 108.677 44.8774C108.677 45.8135 108.305 46.7113 107.643 47.3732C106.974 48.0212 106.079 48.3836 105.148 48.3836C104.216 48.3836 103.321 48.0212 102.652 47.3732C102.322 47.0466 102.06 46.6579 101.882 46.2295C101.703 45.8011 101.611 45.3416 101.611 44.8774C101.611 44.4133 101.703 43.9538 101.882 43.5254C102.06 43.097 102.322 42.7083 102.652 42.3817Z" fill="black"/>
<path d="M43.8586 112C44.9161 111.999 45.9536 111.712 46.8611 111.169C47.7686 110.626 48.5122 109.848 49.0131 108.916C49.5139 107.985 49.7534 106.935 49.706 105.879C49.6586 104.822 49.3262 103.798 48.7439 102.916L57.1047 94.5486L55.4512 92.8953L47.0843 101.262C46.3228 100.76 45.4543 100.443 44.5484 100.336C43.6424 100.228 42.7239 100.335 41.8663 100.646C41.0087 100.957 40.2357 101.464 39.609 102.127C38.9823 102.79 38.5193 103.59 38.2568 104.464C37.9943 105.337 37.9396 106.26 38.0973 107.159C38.255 108.058 38.6206 108.907 39.1648 109.639C39.709 110.371 40.4169 110.966 41.2319 111.376C42.0469 111.786 42.9464 112 43.8586 112ZM41.3629 103.658C42.0248 102.996 42.9225 102.624 43.8586 102.624C44.7947 102.624 45.6924 102.996 46.3543 103.658C47.0163 104.32 47.388 105.218 47.388 106.154C47.388 107.09 47.0163 107.988 46.3543 108.65C45.6829 109.293 44.7888 109.653 43.8586 109.653C42.9285 109.653 42.0343 109.293 41.3629 108.65C41.0339 108.322 40.7727 107.934 40.5946 107.505C40.4164 107.077 40.3246 106.618 40.3246 106.154C40.3246 105.69 40.4164 105.231 40.5946 104.802C40.7727 104.374 41.0339 103.985 41.3629 103.658Z" fill="black"/>
<path d="M105.11 100.289C103.962 100.288 102.84 100.626 101.885 101.262L93.5425 92.9077L91.8892 94.5611L100.25 102.928C99.5299 104.017 99.1941 105.314 99.2955 106.615C99.3968 107.916 99.9297 109.146 100.81 110.11C101.689 111.074 102.866 111.716 104.152 111.935C105.439 112.155 106.762 111.938 107.911 111.32C109.06 110.702 109.97 109.718 110.497 108.524C111.024 107.33 111.136 105.994 110.818 104.729C110.499 103.463 109.767 102.341 108.737 101.539C107.708 100.736 106.44 100.301 105.135 100.301L105.11 100.289ZM107.606 108.631C106.935 109.274 106.04 109.634 105.11 109.634C104.18 109.634 103.286 109.274 102.615 108.631C102.127 108.138 101.795 107.512 101.663 106.832C101.53 106.151 101.601 105.447 101.868 104.807C102.135 104.167 102.585 103.62 103.162 103.236C103.739 102.851 104.417 102.646 105.11 102.646C105.804 102.646 106.481 102.851 107.058 103.236C107.635 103.62 108.086 104.167 108.352 104.807C108.619 105.447 108.691 106.151 108.558 106.832C108.425 107.512 108.094 108.138 107.606 108.631Z" fill="black"/>
<path d="M43.8586 50.7236C45.0064 50.7246 46.1287 50.386 47.0843 49.7503L55.4512 58.1172L57.1047 56.4576L48.7439 48.0968C49.4667 47.0084 49.8054 45.7098 49.7062 44.407C49.607 43.1042 49.0756 41.8719 48.1963 40.9055C47.317 39.939 46.1402 39.2939 44.8526 39.0724C43.5649 38.8508 42.2403 39.0656 41.0886 39.6826C39.9369 40.2996 39.0241 41.2834 38.4952 42.4781C37.9663 43.6728 37.8515 45.0099 38.1689 46.2773C38.4863 47.5447 39.2178 48.6698 40.2474 49.4742C41.277 50.2785 42.5458 50.716 43.8524 50.7173L43.8586 50.7236ZM41.3629 42.3817C42.0248 41.7198 42.9226 41.3478 43.8586 41.3478C44.7947 41.3478 45.6925 41.7198 46.3544 42.3817C47.0163 43.0436 47.3881 43.9413 47.3881 44.8774C47.3881 45.8135 47.0163 46.7112 46.3544 47.3731C45.6852 48.0211 44.7902 48.3835 43.8586 48.3835C42.9271 48.3835 42.0321 48.0211 41.3629 47.3731C41.0332 47.0465 40.7714 46.6578 40.5927 46.2294C40.4141 45.8011 40.3221 45.3415 40.3221 44.8774C40.3221 44.4133 40.4141 43.9537 40.5927 43.5253C40.7714 43.097 41.0332 42.7083 41.3629 42.3817Z" fill="black"/>
<path d="M68.6412 87.8039C70.9658 87.7993 73.2055 86.9295 74.9242 85.3643C76.7919 86.2742 78.8571 86.7035 80.9327 86.613C83.0083 86.5226 85.0285 85.9154 86.81 84.8465C86.9844 84.7436 87.1288 84.5966 87.2284 84.4203C87.3281 84.244 87.3797 84.0444 87.3778 83.8419V65.9975C87.3784 65.7952 87.3263 65.5962 87.2267 65.4201C87.1272 65.244 86.9836 65.0968 86.81 64.9929C84.8514 63.8451 82.6225 63.2401 80.3524 63.2401C78.0823 63.2401 75.8532 63.8451 73.8946 64.9929C73.7218 65.0977 73.579 65.2451 73.4795 65.421C73.3801 65.5969 73.3275 65.7955 73.3269 65.9975V70.3276C72.0838 69.612 70.6928 69.1917 69.2614 69.0992C67.8301 69.0067 66.3967 69.2444 65.0718 69.794C63.747 70.3436 62.5661 71.1903 61.6206 72.2688C60.675 73.3474 59.99 74.6287 59.6184 76.0141C59.2468 77.3995 59.1985 78.8517 59.4775 80.2587C59.7564 81.6657 60.3551 82.9897 61.2271 84.1286C62.0991 85.2674 63.2212 86.1906 64.5067 86.8267C65.7922 87.4629 67.2068 87.7951 68.6412 87.7977V87.8039ZM85.0381 83.1557C83.7215 83.818 82.2792 84.1932 80.8068 84.2567C79.3343 84.3201 77.8651 84.0703 76.4964 83.5237C77.2918 82.3043 77.7898 80.9152 77.9502 79.4681C78.7481 79.5545 79.5499 79.6002 80.3524 79.6054C81.9265 79.6047 83.4965 79.4437 85.0381 79.1249V83.1557ZM75.6791 66.6838C77.1309 65.9535 78.7335 65.5732 80.3586 65.5732C81.9837 65.5732 83.5863 65.9535 85.0381 66.6838V69.6849C81.9595 70.4004 78.7578 70.4004 75.6791 69.6849V66.6838ZM75.6791 72.0995C78.7665 72.7341 81.9507 72.7341 85.0381 72.0995V76.6854C82.6997 77.2293 80.2847 77.3643 77.9002 77.0847C77.6429 75.2896 76.8666 73.6089 75.6666 72.2492L75.6791 72.0995ZM68.6537 71.407C70.2797 71.4116 71.8538 71.9795 73.1082 73.0142C74.3625 74.0488 75.2196 75.4862 75.5334 77.0816C75.8472 78.6771 75.5982 80.3318 74.8291 81.7645C74.0601 83.1971 72.8184 84.3189 71.3153 84.939C69.8121 85.559 68.1405 85.6391 66.5851 85.1653C65.0296 84.6916 63.6863 83.6934 62.784 82.3407C61.8817 80.988 61.4762 79.3643 61.6363 77.7462C61.7964 76.1281 62.5123 74.6156 63.6622 73.466C64.3181 72.8117 65.0966 72.293 65.9531 71.9397C66.8095 71.5864 67.7272 71.4054 68.6537 71.407Z" fill="black"/>
<path d="M69.2277 80.7723H68.0548C67.978 80.7731 67.9018 80.7588 67.8307 80.73C67.7596 80.7012 67.6948 80.6586 67.6403 80.6046C67.5857 80.5506 67.5425 80.4864 67.5129 80.4156C67.4834 80.3448 67.4681 80.2688 67.4681 80.1921H65.1284C65.1303 80.8655 65.3639 81.5177 65.79 82.0392C66.216 82.5607 66.8086 82.9197 67.4681 83.0558V84.3037H69.8141V83.0558C70.5281 82.914 71.1635 82.5112 71.5964 81.926C72.0292 81.3409 72.2285 80.6153 72.1552 79.8911C72.082 79.1669 71.7415 78.4962 71.2002 78.0096C70.6588 77.523 69.9555 77.2555 69.2277 77.2595H68.0548C67.9731 77.268 67.8905 77.2592 67.8124 77.2338C67.7343 77.2083 67.6624 77.1667 67.6014 77.1117C67.5404 77.0568 67.4918 76.9895 67.4584 76.9145C67.425 76.8395 67.4078 76.7584 67.4078 76.6762C67.4078 76.5941 67.425 76.5129 67.4584 76.4378C67.4918 76.3628 67.5404 76.2956 67.6014 76.2406C67.6624 76.1856 67.7343 76.144 67.8124 76.1186C67.8905 76.0931 67.9731 76.0844 68.0548 76.0928H69.2277C69.3047 76.0928 69.3809 76.108 69.4521 76.1375C69.5232 76.1669 69.588 76.2102 69.6425 76.2647C69.6969 76.3191 69.74 76.3838 69.7695 76.4549C69.799 76.5261 69.8141 76.6023 69.8141 76.6793H72.1539C72.1534 76.0048 71.9205 75.351 71.4943 74.8282C71.0681 74.3054 70.4747 73.9455 69.8141 73.8091V72.5613H67.4681V73.8091C66.7542 73.951 66.1188 74.3539 65.6859 74.9391C65.253 75.5243 65.0539 76.2497 65.1272 76.9739C65.2005 77.6981 65.5409 78.369 66.0823 78.8556C66.6236 79.3422 67.3269 79.6095 68.0548 79.6055H69.2277C69.3094 79.597 69.392 79.6059 69.47 79.6314C69.5481 79.6568 69.6199 79.6984 69.6808 79.7534C69.7418 79.8084 69.7907 79.8755 69.824 79.9505C69.8574 80.0255 69.8746 80.1068 69.8746 80.1889C69.8746 80.271 69.8574 80.3523 69.824 80.4273C69.7907 80.5023 69.7418 80.5694 69.6808 80.6244C69.6199 80.6794 69.5481 80.721 69.47 80.7464C69.392 80.7719 69.3094 80.7808 69.2277 80.7723Z" fill="black"/>
<path d="M96.7493 75.5064C96.7476 71.3727 95.5944 67.3212 93.419 63.8063C91.2436 60.2914 88.1319 57.452 84.4331 55.6065C80.7342 53.7611 76.5944 52.9825 72.4778 53.3582C68.3613 53.7338 64.4309 55.2488 61.1272 57.7333C57.8235 60.2178 55.2772 63.5735 53.7739 67.4241C52.2706 71.2747 51.8698 75.4679 52.6164 79.5336C53.3629 83.5993 55.2272 87.3767 58.0004 90.4421C60.7735 93.5075 64.3459 95.7396 68.3167 96.8884L68.9406 94.6361C64.2024 93.2855 60.1308 90.2306 57.5091 86.059C54.8874 81.8874 53.9007 76.8939 54.7389 72.0387C55.577 67.1835 58.1807 62.8095 62.0492 59.7584C65.9178 56.7072 70.778 55.1943 75.6948 55.5104C80.6117 55.8266 85.238 57.9495 88.6839 61.471C92.1298 64.9925 94.152 69.6638 94.3614 74.5863C94.5708 79.5089 92.9527 84.3351 89.8183 88.1366C86.6839 91.938 82.2547 94.4462 77.3824 95.1788L79.5725 92.8328L77.8566 91.2357L73.6139 95.7904C73.4998 95.9135 73.4134 96.0596 73.3607 96.2189C73.308 96.3782 73.2901 96.547 73.3082 96.7138C73.324 96.8801 73.3757 97.0409 73.4597 97.1853C73.5437 97.3296 73.6581 97.4539 73.7948 97.5498L78.8736 101.15L80.2276 99.2344L77.7692 97.4937C83.0355 96.7001 87.8432 94.0458 91.3207 90.012C94.7981 85.9783 96.7152 80.8321 96.7243 75.5064H96.7493Z" fill="black"/>
</g>
<defs>
<clipPath id="clip0_253_12">
<rect width="73" height="73" fill="white" transform="translate(38 39)"/>
</clipPath>
</defs>
</svg>
