<svg width="150" height="150" viewBox="0 0 150 150" fill="none" xmlns="http://www.w3.org/2000/svg">
<circle cx="75" cy="75" r="75" fill="#E1FAEB"/>
<g clip-path="url(#clip0_253_11)">
<path d="M104.687 64.3189C104.916 64.5304 105.232 64.6588 105.57 64.6773C105.908 64.6957 106.241 64.6027 106.5 64.4179C106.759 64.233 106.924 63.9705 106.96 63.6849C106.997 63.3993 106.902 63.1128 106.696 62.8849L98.5826 54.6833C98.5826 54.6833 98.555 54.6833 98.544 54.6598C98.4237 54.5425 98.2753 54.4484 98.1087 54.3837C97.9421 54.3191 97.7612 54.2853 97.5781 54.2849C97.3951 54.2865 97.2147 54.3207 97.0483 54.3853C96.882 54.4499 96.7333 54.5434 96.6121 54.6598L96.5736 54.6833L88.4653 62.8849C88.3452 62.9958 88.2528 63.1262 88.1938 63.2682C88.1347 63.4102 88.1101 63.5609 88.1215 63.7112C88.1329 63.8616 88.18 64.0084 88.2601 64.1428C88.3401 64.2773 88.4513 64.3966 88.5871 64.4935C88.7229 64.5905 88.8804 64.663 89.0501 64.7068C89.2199 64.7506 89.3984 64.7649 89.5747 64.7486C89.7511 64.7323 89.9218 64.6858 90.0764 64.6119C90.231 64.5381 90.3664 64.4384 90.4745 64.3189L96.2645 58.4606V96.7739H79.0931V70.7677L84.8831 76.626C85.1121 76.8375 85.4284 76.9658 85.766 76.9843C86.1037 77.0027 86.4366 76.9099 86.6956 76.725C86.9545 76.5401 87.1195 76.2776 87.1562 75.992C87.1928 75.7064 87.0983 75.4199 86.8923 75.192L78.784 66.9904H78.7455C78.6258 66.8724 78.4774 66.7777 78.3107 66.7128C78.1441 66.6479 77.9629 66.6144 77.7795 66.6144C77.5962 66.6144 77.4149 66.6479 77.2482 66.7128C77.0815 66.7777 76.9333 66.8724 76.8136 66.9904H76.7749L68.6668 75.192C68.5467 75.3029 68.4543 75.4333 68.3953 75.5753C68.3362 75.7174 68.3115 75.868 68.3229 76.0183C68.3343 76.1687 68.3814 76.3155 68.4614 76.4499C68.5414 76.5844 68.6528 76.7037 68.7886 76.8006C68.9244 76.8976 69.0819 76.9701 69.2516 77.0139C69.4213 77.0578 69.5997 77.072 69.7761 77.0557C69.9524 77.0394 70.1231 76.9929 70.2778 76.9191C70.4324 76.8452 70.5678 76.7455 70.6758 76.626L76.4658 70.7677V96.7739H59.2891V80.4878L65.0791 86.3461C65.308 86.5576 65.6242 86.686 65.9619 86.7045C66.2995 86.7229 66.6325 86.63 66.8915 86.4451C67.1505 86.2602 67.3155 85.9977 67.3521 85.7121C67.3888 85.4265 67.2942 85.14 67.0881 84.9121L58.98 76.7105L58.9413 76.687C58.8216 76.5691 58.6734 76.4744 58.5067 76.4096C58.34 76.3447 58.1587 76.311 57.9754 76.311C57.792 76.311 57.6109 76.3447 57.4442 76.4096C57.2775 76.4744 57.1291 76.5691 57.0095 76.687L56.9709 76.7105L48.8626 84.9121C48.7426 85.023 48.6502 85.1534 48.5911 85.2954C48.532 85.4374 48.5075 85.5881 48.5189 85.7384C48.5302 85.8888 48.5774 86.0356 48.6574 86.17C48.7374 86.3045 48.8486 86.4238 48.9844 86.5207C49.1202 86.6177 49.2777 86.6902 49.4474 86.734C49.6172 86.7778 49.7957 86.7921 49.972 86.7758C50.1484 86.7595 50.3191 86.713 50.4737 86.6391C50.6284 86.5653 50.7638 86.4656 50.8718 86.3461L56.6618 80.4878V96.7739H46.6272V49.1155C46.6272 48.8197 46.4888 48.536 46.2424 48.3268C45.9961 48.1176 45.662 48.0001 45.3136 48.0001C44.9652 48.0001 44.6311 48.1176 44.3847 48.3268C44.1384 48.536 44 48.8197 44 49.1155V97.8894C44.0015 98.1848 44.1403 98.4678 44.3863 98.6767C44.6324 98.8856 44.9656 99.0035 45.3136 99.0047H104.753C105.102 99.0047 105.436 98.8872 105.682 98.6781C105.929 98.4689 106.067 98.1852 106.067 97.8894C106.067 97.5935 105.929 97.3099 105.682 97.1007C105.436 96.8915 105.102 96.7739 104.753 96.7739H98.8918V58.4606L104.687 64.3189Z" fill="black"/>
</g>
<defs>
<clipPath id="clip0_253_11">
<rect width="63" height="51" fill="white" transform="translate(44 48)"/>
</clipPath>
</defs>
</svg>
