<svg width="493" height="276" viewBox="0 0 493 276" fill="none" xmlns="http://www.w3.org/2000/svg">
<g clip-path="url(#clip0_181_3269)">
<path d="M480.187 146.518V192.788C480.187 192.788 501.455 162.055 489.202 108.936L480.187 146.518Z" fill="#00AB6C"/>
<path d="M125.261 206.696L125.095 261.873C125.095 261.873 47.647 242.009 15.5879 198.55C15.5879 198.55 -6.29254 175.078 1.77695 116.713L125.261 206.696Z" fill="#373A3D"/>
<path d="M125.024 209.656V261.829C125.024 261.829 165.923 275.991 248.167 275.974C248.167 275.974 424.759 276.85 480.187 192.77V141.482L125.024 209.656Z" fill="#BFBFBF"/>
<path d="M245.787 99.573V9.15527e-05C310.605 9.15527e-05 369.472 12.1829 413.18 32.0205L245.787 99.573Z" fill="#6C7278"/>
<path d="M245.787 234.906C201.842 234.906 160.637 229.292 125.007 219.509L245.787 99.5731L480.187 150.187C450.692 199.146 356.965 234.906 245.787 234.906Z" fill="#CCCCCC"/>
<path d="M412.953 31.9153C460.267 53.338 489.867 83.7205 489.867 117.457C489.867 128.843 486.445 139.791 480.187 150.187L245.787 99.5731L412.953 31.9153Z" fill="#00CC81"/>
<path d="M125.024 219.509C51.3837 199.286 1.70654 161.17 1.70654 117.457C1.70654 52.5847 110.986 9.15527e-05 245.786 9.15527e-05V99.573L125.024 219.509Z" fill="#474B4F"/>
<path d="M278.345 184.318V173.37H281.889C282.982 173.329 284.068 173.561 285.049 174.044C285.851 174.465 286.498 175.131 286.896 175.945C287.294 176.862 287.5 177.853 287.5 178.853C287.5 179.853 287.294 180.843 286.896 181.761C286.497 182.572 285.85 183.235 285.049 183.652C284.065 184.128 282.981 184.357 281.889 184.318H278.345ZM279.999 182.908H281.828C282.638 182.948 283.445 182.782 284.174 182.426C284.738 182.119 285.179 181.627 285.425 181.034C285.696 180.342 285.827 179.604 285.81 178.862C285.827 178.113 285.696 177.369 285.425 176.672C285.181 176.071 284.739 175.571 284.174 175.253C283.446 174.894 282.639 174.725 281.828 174.763H280.025L279.999 182.908Z" fill="black"/>
<path d="M293.197 184.502C292.49 184.517 291.792 184.342 291.175 183.994C290.593 183.658 290.114 183.167 289.793 182.575C289.449 181.926 289.277 181.199 289.294 180.465C289.275 179.722 289.444 178.987 289.784 178.328C290.096 177.728 290.573 177.23 291.158 176.891C291.785 176.538 292.495 176.36 293.215 176.375C293.909 176.356 294.594 176.532 295.193 176.883C295.745 177.204 296.199 177.67 296.506 178.231C296.822 178.802 296.985 179.444 296.978 180.097C296.978 180.202 296.978 180.307 296.978 180.429C296.978 180.552 296.978 180.683 296.978 180.832H290.948C290.953 181.152 291.022 181.468 291.15 181.761C291.277 182.054 291.462 182.319 291.692 182.54C292.113 182.924 292.663 183.134 293.232 183.127C293.65 183.142 294.062 183.029 294.414 182.803C294.732 182.588 294.979 182.283 295.123 181.927H296.777C296.571 182.656 296.135 183.298 295.534 183.758C294.867 184.273 294.039 184.536 293.197 184.502ZM293.197 177.732C292.666 177.727 292.149 177.899 291.727 178.222C291.506 178.405 291.323 178.63 291.189 178.884C291.056 179.138 290.974 179.416 290.948 179.702H295.324C295.321 179.431 295.262 179.164 295.151 178.916C295.039 178.669 294.878 178.448 294.676 178.266C294.271 177.904 293.741 177.713 293.197 177.732Z" fill="black"/>
<path d="M303.367 184.502C302.812 184.511 302.263 184.388 301.765 184.143C301.311 183.914 300.929 183.562 300.663 183.127L300.487 184.318H299.008V173.064H300.663V177.767C300.938 177.377 301.289 177.046 301.695 176.795C302.206 176.495 302.793 176.349 303.384 176.374C304.081 176.359 304.768 176.545 305.362 176.909C305.939 177.26 306.408 177.763 306.719 178.363C307.041 179.012 307.209 179.726 307.209 180.451C307.209 181.176 307.041 181.891 306.719 182.54C306.399 183.148 305.915 183.654 305.323 184C304.731 184.347 304.053 184.521 303.367 184.502ZM303.087 183.066C303.413 183.074 303.738 183.013 304.039 182.888C304.341 182.763 304.613 182.576 304.837 182.339C305.304 181.819 305.549 181.137 305.52 180.438C305.529 179.967 305.421 179.5 305.205 179.081C305.011 178.692 304.706 178.369 304.33 178.152C303.951 177.92 303.513 177.802 303.069 177.811C302.742 177.799 302.416 177.858 302.113 177.985C301.811 178.112 301.54 178.304 301.319 178.546C300.877 179.079 300.635 179.75 300.635 180.443C300.635 181.135 300.877 181.806 301.319 182.339C301.543 182.581 301.818 182.771 302.123 182.897C302.428 183.023 302.757 183.08 303.087 183.066Z" fill="black"/>
<path d="M312.251 184.318C311.6 184.351 310.958 184.152 310.439 183.758C310.188 183.498 309.997 183.186 309.881 182.844C309.764 182.501 309.725 182.137 309.765 181.778V177.951H308.443V176.558H309.782L309.993 174.588H311.445V176.558H313.625V177.951H311.445V181.778C311.427 181.935 311.442 182.094 311.489 182.245C311.536 182.396 311.613 182.535 311.717 182.654C311.992 182.846 312.328 182.933 312.662 182.9H313.537V184.309L312.251 184.318Z" fill="black"/>
<path d="M387.414 89.3522V78.4129H389.366L393.068 85.7L396.753 78.4129H398.704V89.3522H397.05V81.2769L393.707 87.793H392.429L389.068 81.2944V89.3522H387.414Z" fill="black"/>
<path d="M404.796 89.5446C404.098 89.5567 403.409 89.3812 402.801 89.0366C402.215 88.6973 401.733 88.2036 401.409 87.6091C401.05 86.9584 400.872 86.2239 400.893 85.4811C400.876 84.7348 401.057 83.9971 401.418 83.3437C401.749 82.751 402.237 82.2606 402.827 81.9252C403.436 81.5917 404.119 81.4167 404.814 81.4167C405.508 81.4167 406.191 81.5917 406.8 81.9252C407.387 82.2654 407.873 82.7546 408.209 83.3437C408.57 83.9971 408.751 84.7348 408.735 85.4811C408.752 86.2247 408.571 86.9593 408.209 87.6091C407.875 88.2049 407.385 88.6983 406.792 89.0366C406.184 89.3812 405.495 89.5567 404.796 89.5446ZM404.796 88.1171C405.194 88.1254 405.586 88.0194 405.926 87.8114C406.266 87.6034 406.539 87.3022 406.713 86.9437C406.917 86.4832 407.023 85.985 407.023 85.4811C407.023 84.9772 406.917 84.4785 406.713 84.0181C406.532 83.656 406.253 83.3524 405.908 83.1423C405.572 82.9482 405.192 82.8457 404.805 82.8446C404.406 82.8419 404.013 82.9512 403.673 83.1602C403.333 83.3692 403.058 83.6696 402.879 84.0271C402.672 84.4867 402.564 84.9852 402.564 85.4897C402.564 85.9941 402.672 86.4927 402.879 86.9522C403.068 87.3113 403.349 87.6136 403.693 87.8281C404.028 88.0218 404.409 88.1217 404.796 88.1171Z" fill="black"/>
<path d="M410.844 89.3523V81.6011H412.305L412.437 82.9675C412.668 82.493 413.033 82.0968 413.487 81.8286C413.974 81.5496 414.527 81.4076 415.089 81.4172C415.499 81.3956 415.909 81.4624 416.291 81.6135C416.673 81.7647 417.018 81.9966 417.303 82.2931C417.892 83.0362 418.176 83.9754 418.099 84.9206V89.3698H416.463V85.0869C416.463 83.5892 415.85 82.8362 414.616 82.8362C414.33 82.8289 414.045 82.8836 413.782 82.997C413.52 83.1104 413.284 83.2798 413.093 83.4931C412.666 84.0241 412.454 84.6959 412.498 85.376V89.3698L410.844 89.3523Z" fill="black"/>
<path d="M423.989 89.5445C423.282 89.56 422.584 89.3844 421.968 89.0365C421.385 88.7001 420.906 88.2094 420.585 87.618C420.241 86.9686 420.069 86.2418 420.086 85.5071C420.072 84.7653 420.24 84.0315 420.576 83.3701C420.891 82.7723 421.367 82.2746 421.95 81.9336C422.577 81.5809 423.288 81.4027 424.007 81.417C424.703 81.3995 425.391 81.5754 425.994 81.9251C426.541 82.2504 426.991 82.7161 427.298 83.2739C427.615 83.8438 427.778 84.4868 427.77 85.1393C427.77 85.2444 427.77 85.3494 427.77 85.472C427.778 85.6062 427.778 85.7407 427.77 85.8749H421.749C421.753 86.1939 421.82 86.5089 421.947 86.802C422.073 87.0951 422.255 87.3606 422.484 87.5829C422.905 87.9657 423.456 88.1752 424.025 88.1696C424.442 88.1865 424.855 88.0732 425.206 87.8455C425.524 87.6308 425.771 87.3258 425.915 86.9696H427.569C427.363 87.6982 426.927 88.3402 426.326 88.8C425.66 89.3164 424.832 89.5802 423.989 89.5445ZM423.989 82.7744C423.458 82.7692 422.941 82.9419 422.519 83.2649C422.076 83.6369 421.796 84.1684 421.74 84.745H426.116C426.113 84.4747 426.055 84.2081 425.945 83.9611C425.835 83.7142 425.676 83.4923 425.477 83.309C425.067 82.9478 424.535 82.7564 423.989 82.7744Z" fill="black"/>
<path d="M430.361 92.7939L432.225 88.7128H431.77L428.707 81.601H430.457L432.838 87.3375L435.314 81.601H437.065L432.067 92.7939H430.361Z" fill="black"/>
<path d="M386.136 106.711V98.9599H387.607L387.747 100.055C387.992 99.664 388.332 99.3418 388.736 99.1177C389.176 98.8803 389.671 98.7597 390.171 98.7675C390.693 98.727 391.216 98.8437 391.671 99.1028C392.127 99.3619 392.494 99.7513 392.727 100.221C393.015 99.7754 393.411 99.4093 393.877 99.1554C394.343 98.9015 394.865 98.7681 395.396 98.7675C395.817 98.7454 396.238 98.8116 396.631 98.9625C397.025 99.1134 397.382 99.3455 397.68 99.6433C398.303 100.372 398.617 101.314 398.555 102.271V106.729H396.893V102.446C396.893 100.948 396.324 100.195 395.142 100.195C394.87 100.186 394.599 100.24 394.351 100.355C394.104 100.469 393.886 100.639 393.716 100.852C393.315 101.391 393.12 102.056 393.164 102.726V106.729H391.501V102.446C391.501 100.948 390.924 100.195 389.751 100.195C389.481 100.188 389.214 100.244 388.97 100.358C388.725 100.472 388.51 100.641 388.342 100.852C387.938 101.39 387.74 102.055 387.782 102.726V106.729L386.136 106.711Z" fill="black"/>
<path d="M403.378 106.895C402.82 106.918 402.265 106.806 401.759 106.571C401.362 106.379 401.03 106.074 400.805 105.695C400.595 105.337 400.486 104.928 400.49 104.513C400.483 104.172 400.56 103.834 400.712 103.529C400.864 103.224 401.088 102.961 401.365 102.761C402.107 102.279 402.985 102.049 403.868 102.104H405.899V101.929C405.916 101.68 405.882 101.429 405.798 101.194C405.713 100.959 405.581 100.744 405.408 100.563C405.055 100.257 404.598 100.097 404.131 100.116C403.709 100.103 403.294 100.219 402.94 100.449C402.771 100.559 402.628 100.704 402.521 100.875C402.414 101.046 402.345 101.238 402.319 101.439H400.665C400.705 100.91 400.903 100.407 401.234 99.9935C401.57 99.5899 402 99.2745 402.485 99.074C403.012 98.8567 403.578 98.7464 404.148 98.7499C405.068 98.6997 405.97 99.0144 406.66 99.6257C406.96 99.9299 407.193 100.293 407.343 100.693C407.494 101.093 407.559 101.52 407.535 101.947V106.711H406.1L405.96 105.38C405.735 105.812 405.408 106.182 405.006 106.457C404.522 106.768 403.953 106.921 403.378 106.895ZM403.711 105.555C404.112 105.57 404.507 105.456 404.84 105.231C405.156 105.012 405.404 104.708 405.557 104.355C405.735 103.987 405.845 103.589 405.881 103.182H404.034C403.544 103.134 403.052 103.257 402.643 103.532C402.508 103.633 402.399 103.766 402.326 103.918C402.252 104.071 402.217 104.239 402.223 104.408C402.218 104.569 402.252 104.728 402.322 104.873C402.392 105.018 402.496 105.144 402.625 105.239C402.942 105.462 403.324 105.573 403.711 105.555Z" fill="black"/>
<path d="M409.802 106.711V98.9599H411.308L411.448 100.431C411.706 99.9277 412.1 99.506 412.585 99.2139C413.116 98.9041 413.722 98.7496 414.336 98.7674V100.519H413.881C413.462 100.51 413.045 100.584 412.655 100.738C412.287 100.892 411.98 101.163 411.78 101.509C411.54 101.967 411.428 102.481 411.456 102.998V106.72L409.802 106.711Z" fill="black"/>
<path d="M416.051 106.711V95.4565H417.705V102.165L420.672 98.9598H422.685L419.385 102.463L423.166 106.702H421.075L417.731 102.735V106.702L416.051 106.711Z" fill="black"/>
<path d="M427.761 106.895C427.054 106.91 426.356 106.735 425.74 106.387C425.155 106.056 424.676 105.568 424.357 104.977C424.013 104.327 423.841 103.601 423.858 102.866C423.844 102.121 424.012 101.385 424.348 100.72C424.666 100.124 425.141 99.6274 425.722 99.2839C426.349 98.9312 427.06 98.7529 427.779 98.7673C428.475 98.7538 429.162 98.9294 429.766 99.2753C430.313 99.6037 430.764 100.072 431.07 100.633C431.386 101.2 431.549 101.84 431.542 102.49C431.542 102.595 431.542 102.708 431.542 102.831C431.542 102.953 431.542 103.076 431.542 103.225H425.521C425.517 103.552 425.581 103.876 425.707 104.177C425.834 104.478 426.02 104.751 426.256 104.977C426.677 105.36 427.228 105.569 427.797 105.564C428.213 105.579 428.624 105.469 428.978 105.248C429.292 105.029 429.538 104.726 429.687 104.373H431.341C431.134 105.098 430.698 105.737 430.098 106.194C429.426 106.695 428.598 106.943 427.761 106.895ZM427.761 100.134C427.23 100.124 426.711 100.297 426.291 100.624C425.846 100.994 425.566 101.527 425.512 102.104H429.888C429.884 101.833 429.825 101.565 429.716 101.317C429.606 101.068 429.447 100.844 429.249 100.659C428.83 100.32 428.3 100.148 427.761 100.177V100.134Z" fill="black"/>
<path d="M436.619 106.711C435.969 106.746 435.327 106.551 434.807 106.159C434.557 105.899 434.367 105.587 434.25 105.245C434.134 104.903 434.094 104.539 434.133 104.18V100.353H432.812V98.9598H434.133L434.334 96.9892H435.813V98.9598H437.993V100.353H435.813V104.18C435.796 104.337 435.811 104.496 435.858 104.646C435.905 104.797 435.982 104.936 436.085 105.056C436.363 105.242 436.697 105.325 437.03 105.292H437.905V106.702L436.619 106.711Z" fill="black"/>
<path d="M290.37 39.4911C289.374 39.5122 288.39 39.2608 287.526 38.7641C286.715 38.2948 286.053 37.6055 285.618 36.7759C285.168 35.8585 284.935 34.8506 284.935 33.829C284.935 32.8074 285.168 31.7991 285.618 30.8816C286.053 30.052 286.715 29.3627 287.526 28.8935C288.398 28.422 289.374 28.1754 290.366 28.1754C291.357 28.1754 292.333 28.422 293.206 28.8935C294.016 29.3606 294.675 30.0506 295.105 30.8816C295.554 31.7991 295.787 32.8074 295.787 33.829C295.787 34.8506 295.554 35.8585 295.105 36.7759C294.675 37.6069 294.016 38.297 293.206 38.7641C292.345 39.2609 291.364 39.5124 290.37 39.4911ZM290.37 38.002C291.057 38.0173 291.735 37.8449 292.331 37.5029C292.892 37.1566 293.344 36.6586 293.635 36.0665C293.941 35.3602 294.099 34.5988 294.099 33.829C294.099 33.0591 293.941 32.2973 293.635 31.5911C293.344 30.999 292.892 30.501 292.331 30.1546C291.727 29.8273 291.052 29.656 290.366 29.656C289.679 29.656 289.004 29.8273 288.401 30.1546C287.834 30.4944 287.381 30.9942 287.097 31.5911C286.791 32.2973 286.633 33.0591 286.633 33.829C286.633 34.5988 286.791 35.3602 287.097 36.0665C287.381 36.6634 287.834 37.1632 288.401 37.5029C289 37.8429 289.681 38.0126 290.37 37.9935V38.002Z" fill="white"/>
<path d="M301.127 39.2987C300.477 39.3338 299.835 39.1381 299.315 38.7466C299.064 38.4864 298.874 38.1743 298.757 37.8322C298.641 37.4901 298.601 37.1266 298.641 36.7674V32.9399H297.319V31.5475H298.641L298.851 29.5769H300.304V31.5475H302.483V32.9399H300.304V36.7674C300.286 36.9242 300.302 37.0828 300.348 37.2335C300.395 37.3842 300.472 37.5237 300.575 37.6432C300.854 37.8279 301.188 37.9114 301.52 37.8797H302.396V39.2897L301.127 39.2987Z" fill="white"/>
<path d="M304.531 39.2986V28.0442H306.185V32.7996C306.443 32.3535 306.819 31.987 307.271 31.7399C307.743 31.4843 308.274 31.3549 308.811 31.3636C309.216 31.343 309.621 31.4104 309.997 31.5616C310.373 31.7128 310.712 31.9443 310.99 32.2394C311.58 32.9825 311.867 33.9208 311.796 34.8669V39.3158H310.15V35.0333C310.15 33.5356 309.555 32.7821 308.4 32.7821C308.108 32.7749 307.819 32.8301 307.55 32.9433C307.282 33.0566 307.04 33.2253 306.842 33.439C306.402 33.9604 306.182 34.6327 306.229 35.3134V39.3158L304.531 39.2986Z" fill="white"/>
<path d="M317.659 39.4913C316.951 39.5036 316.253 39.3253 315.638 38.9747C315.053 38.644 314.574 38.155 314.255 37.5643C313.911 36.9149 313.739 36.1885 313.756 35.4538C313.741 34.7119 313.909 33.9779 314.246 33.3169C314.561 32.7166 315.037 32.2158 315.62 31.8714C316.249 31.5226 316.958 31.3476 317.677 31.3638C318.372 31.3476 319.059 31.52 319.664 31.8628C320.212 32.1936 320.664 32.6613 320.977 33.2202C321.286 33.7897 321.446 34.4288 321.44 35.0771C321.44 35.1822 321.44 35.2961 321.44 35.4188C321.44 35.5414 321.44 35.6637 321.44 35.8126H315.41C315.409 36.1391 315.473 36.4627 315.599 36.7637C315.725 37.0647 315.911 37.3368 316.145 37.5643C316.57 37.941 317.118 38.1471 317.686 38.1425C318.102 38.158 318.514 38.0483 318.867 37.8273C319.185 37.6126 319.432 37.3076 319.576 36.9515H321.16C320.957 37.6788 320.524 38.3207 319.926 38.7818C319.272 39.267 318.473 39.5171 317.659 39.4913ZM317.659 32.7211C317.128 32.7159 316.611 32.8886 316.189 33.2116C315.745 33.5836 315.466 34.1152 315.41 34.6917H319.786C319.782 34.4203 319.723 34.1523 319.613 33.904C319.504 33.6557 319.345 33.4324 319.147 33.2467C318.733 32.8965 318.202 32.7151 317.659 32.7387V32.7211Z" fill="white"/>
<path d="M323.462 39.2988V31.5476H324.95L325.09 33.0187C325.348 32.5175 325.739 32.0968 326.219 31.8016C326.75 31.4949 327.356 31.3432 327.969 31.3637V33.1154H327.514C327.094 33.1054 326.677 33.1828 326.289 33.3429C325.919 33.4899 325.611 33.7588 325.414 34.105C325.174 34.5629 325.062 35.0772 325.09 35.5936V39.3159L323.462 39.2988Z" fill="white"/>
<path d="M96.5361 114.804V103.865H103.485V105.205H98.1902V108.611H103.013V109.925H98.1902V113.429H103.485V114.777L96.5361 114.804Z" fill="white"/>
<path d="M111.984 118.237V113.595C111.709 113.986 111.358 114.317 110.951 114.567C110.443 114.866 109.859 115.012 109.27 114.988C108.571 115.004 107.881 114.818 107.284 114.453C106.71 114.104 106.246 113.6 105.945 112.999C105.622 112.35 105.455 111.635 105.455 110.91C105.455 110.186 105.622 109.471 105.945 108.822C106.25 108.225 106.717 107.727 107.292 107.385C107.896 107.028 108.587 106.846 109.288 106.86C109.846 106.849 110.398 106.973 110.898 107.219C111.35 107.446 111.727 107.799 111.984 108.235L112.159 107.053H113.638V118.237H111.984ZM109.568 113.551C109.896 113.562 110.222 113.502 110.524 113.375C110.826 113.248 111.097 113.058 111.318 112.816C111.754 112.28 111.992 111.61 111.992 110.919C111.992 110.229 111.754 109.559 111.318 109.023C111.09 108.791 110.817 108.607 110.517 108.481C110.216 108.356 109.894 108.291 109.568 108.291C109.242 108.291 108.92 108.356 108.619 108.481C108.319 108.607 108.046 108.791 107.818 109.023C107.583 109.279 107.401 109.578 107.282 109.904C107.163 110.23 107.11 110.577 107.126 110.924C107.117 111.395 107.226 111.862 107.441 112.281C107.641 112.668 107.944 112.993 108.317 113.218C108.685 113.435 109.105 113.55 109.533 113.551H109.568Z" fill="white"/>
<path d="M118.872 114.988C118.462 115.009 118.052 114.942 117.669 114.791C117.287 114.64 116.942 114.408 116.658 114.112C116.066 113.37 115.778 112.431 115.852 111.484V107.035H117.515V111.318C117.515 112.816 118.128 113.569 119.353 113.569C119.638 113.577 119.922 113.522 120.183 113.408C120.445 113.295 120.678 113.125 120.867 112.912C121.294 112.381 121.507 111.709 121.463 111.029V107.035H123.117V114.786H121.611L121.489 113.42C121.258 113.894 120.893 114.29 120.439 114.558C119.963 114.837 119.423 114.986 118.872 114.988Z" fill="white"/>
<path d="M126.478 105.581C126.337 105.586 126.196 105.564 126.064 105.514C125.931 105.464 125.81 105.389 125.707 105.292C125.607 105.2 125.527 105.088 125.474 104.963C125.421 104.837 125.396 104.701 125.401 104.565C125.396 104.429 125.42 104.293 125.473 104.168C125.526 104.042 125.606 103.93 125.707 103.838C125.921 103.652 126.195 103.55 126.478 103.55C126.761 103.55 127.034 103.652 127.248 103.838C127.349 103.93 127.429 104.042 127.482 104.168C127.535 104.293 127.56 104.429 127.554 104.565C127.559 104.701 127.534 104.837 127.481 104.963C127.428 105.088 127.349 105.2 127.248 105.292C127.145 105.389 127.024 105.464 126.892 105.514C126.759 105.564 126.619 105.586 126.478 105.581ZM125.646 114.804V107.053H127.309V114.804H125.646Z" fill="white"/>
<path d="M133.05 114.804C132.399 114.84 131.756 114.641 131.239 114.243C130.99 113.984 130.801 113.673 130.686 113.332C130.571 112.992 130.533 112.63 130.574 112.273V108.437H129.243V107.053H130.574L130.775 105.082H132.228V107.053H134.416V108.437H132.228V112.273C132.209 112.429 132.224 112.588 132.271 112.739C132.317 112.89 132.395 113.029 132.499 113.148C132.775 113.34 133.11 113.427 133.444 113.393H134.319V114.804H133.05Z" fill="white"/>
<path d="M137.365 118.237L139.229 114.165H138.774L135.711 107.053H137.461L139.842 112.789L142.319 107.053H144.069L139.072 118.237H137.365Z" fill="white"/>
</g>
<defs>
<clipPath id="clip0_181_3269">
<rect width="493" height="276" fill="white"/>
</clipPath>
</defs>
</svg>
